<svg
                    width={28}
                    height={28}
                    viewBox="0 0 28 28"
                    fill="none"
                    xmlns="http://www.w3.org/2000/svg"
                    className="w-7 h-7 relative"
                    preserveAspectRatio="none"
                >
                    <path
                        d="M10.4999 2.86783V5.34583C8.49433 6.16022 6.83402 7.64615 5.80299 9.54946C4.77196 11.4528 4.43428 13.6552 4.84771 15.78C5.26115 17.9047 6.40001 19.8199 8.06948 21.1977C9.73895 22.5756 11.8353 23.3305 13.9999 23.3335C15.8595 23.3337 17.6768 22.7786 19.2189 21.7393C20.761 20.7 21.9576 19.2239 22.6554 17.5002H25.1323C23.6459 22.2333 19.2243 25.6668 13.9999 25.6668C7.55642 25.6668 2.33325 20.4437 2.33325 14.0002C2.33325 8.77583 5.76675 4.35416 10.4999 2.86783ZM13.9999 2.3335C20.4434 2.3335 25.6666 7.55666 25.6666 14.0002C25.6666 14.3945 25.6468 14.783 25.6083 15.1668H12.8333V2.39183C13.2171 2.35333 13.6056 2.3335 13.9999 2.3335ZM15.1666 4.73916V12.8335H23.2609C23.0012 10.7774 22.0649 8.86605 20.5995 7.4006C19.134 5.93515 17.2227 4.99885 15.1666 4.73916Z"
                        fill="white"
                    />
                </svg>