<svg
                            width={28}
                            height={28}
                            viewBox="0 0 28 28"
                            fill="none"
                            xmlns="http://www.w3.org/2000/svg"
                            className="w-7 h-7 relative"
                            preserveAspectRatio="none"
                        >
                            <path
                                d="M10.5 14C10.5 14.9283 10.8687 15.8185 11.5251 16.4749C12.1815 17.1313 13.0717 17.5 14 17.5C14.9283 17.5 15.8185 17.1313 16.4749 16.4749C17.1313 15.8185 17.5 14.9283 17.5 14C17.5 13.0717 17.1313 12.1815 16.4749 11.5251C15.8185 10.8687 14.9283 10.5 14 10.5C13.0717 10.5 12.1815 10.8687 11.5251 11.5251C10.8687 12.1815 10.5 13.0717 10.5 14ZM3.5 10.5H7V17.5H3.5V10.5ZM21 10.5H24.5V17.5H21V10.5Z"
                                stroke="white"
                                stroke-width="2.33333"
                                stroke-linecap="round"
                                stroke-linejoin="round"
                            />
                            <path
                                d="M14 5.8335V22.1668M3.5 8.16683C3.5 7.54799 3.74583 6.9545 4.18342 6.51691C4.621 6.07933 5.21449 5.8335 5.83333 5.8335H22.1667C22.7855 5.8335 23.379 6.07933 23.8166 6.51691C24.2542 6.9545 24.5 7.54799 24.5 8.16683V19.8335C24.5 20.4523 24.2542 21.0458 23.8166 21.4834C23.379 21.921 22.7855 22.1668 22.1667 22.1668H5.83333C5.21449 22.1668 4.621 21.921 4.18342 21.4834C3.74583 21.0458 3.5 20.4523 3.5 19.8335V8.16683Z"
                                stroke="white"
                                stroke-width="2.33333"
                                stroke-linecap="round"
                                stroke-linejoin="round"
                            />
                        </svg>