<svg width="{28}" height="{28}" viewBox="0 0 28 28" fill="none" xmlns="http://www.w3.org/2000/svg" className="w-7 h-7 relative" preserveAspectRatio="none"><path d="M8.16675 23.3332C7.52508 23.3332 6.97597 23.1049 6.51941 22.6483C6.06286 22.1918 5.83419 21.6423 5.83341 20.9998V10.2082L1.16675 4.6665H23.3334C23.9751 4.6665 24.5246 4.89517 24.9819 5.3525C25.4392 5.80984 25.6675 6.35895 25.6667 6.99984V20.9998C25.6667 21.6415 25.4385 22.191 24.9819 22.6483C24.5254 23.1057 23.9759 23.3339 23.3334 23.3332H8.16675ZM8.16675 6.99984V20.9998H23.3334V6.99984H8.16675ZM15.7501 20.4165L17.3834 18.7832L16.1001 17.4998H21.0001V15.1665H10.5001L15.7501 20.4165ZM10.5001 12.8332H21.0001L15.7501 7.58317L14.1167 9.2165L15.4001 10.4998H10.5001V12.8332Z" fill="white"/></svg>