<svg
                            width={28}
                            height={28}
                            viewBox="0 0 28 28"
                            fill="none"
                            xmlns="http://www.w3.org/2000/svg"
                            className="flex-grow-0 flex-shrink-0"
                            preserveAspectRatio="xMidYMid meet"
                        >
                            <path
                                d="M25.6792 18.3383C24.3751 17.0279 22.6943 16.2295 20.8788 16.0428C20.7902 16.0337 20.7008 16.026 20.612 16.0198C20.6014 16.0191 20.5907 16.0185 20.5801 16.0178C20.5076 16.0131 20.435 16.0094 20.3622 16.0066C20.3414 16.0058 20.3206 16.005 20.2997 16.0044C20.2164 16.0017 20.133 16.0002 20.0496 16.0001H8.03008C7.92428 16.0003 7.8185 16.0025 7.71279 16.0068C5.69811 16.0848 3.80885 16.9045 2.36336 18.3356C0.839366 19.8446 0 21.8444 0 23.9666V27.4737C0 27.7644 0.236574 28 0.528302 28H27.4717C27.7634 28 28 27.7644 28 27.4737V23.9666C28 21.8409 27.1757 19.8421 25.6792 18.3383ZM16.166 17.0526V26.9474H11.834V17.0526H16.166ZM1.0566 23.9666C1.0566 22.1267 1.78524 20.3921 3.10821 19.0822C3.77398 18.423 4.54789 17.9132 5.38868 17.5693V26.9474H1.0566V23.9666ZM6.44528 26.9474V17.2348C6.76614 17.16 7.09194 17.108 7.42021 17.0794L7.44129 17.0776C7.49544 17.073 7.5497 17.0692 7.60401 17.0659C7.61764 17.0651 7.63132 17.0642 7.64495 17.0634C7.69455 17.0608 7.74418 17.0586 7.79383 17.057C7.8092 17.0565 7.82457 17.0557 7.84 17.0553C7.90329 17.0536 7.96658 17.0526 8.03003 17.0526H10.7774V26.9473L6.44528 26.9474ZM17.2226 26.9474V17.0526H20.0496C20.1109 17.0526 20.1722 17.0535 20.2334 17.0551C20.2583 17.0558 20.283 17.0571 20.3078 17.0579C20.3433 17.0593 20.3789 17.0604 20.4144 17.0623C20.4484 17.0641 20.4822 17.0665 20.5161 17.0688C20.5414 17.0705 20.5668 17.072 20.5921 17.074C20.6333 17.0772 20.6743 17.0811 20.7152 17.085C20.7321 17.0866 20.749 17.0881 20.7658 17.0898C20.8141 17.0948 20.8623 17.1004 20.9103 17.1064L20.934 17.1094C21.1441 17.1365 21.3511 17.1734 21.5548 17.2191V26.9474H17.2226ZM26.9434 26.9474H22.6113V17.5479C25.1478 18.5698 26.9434 21.0617 26.9434 23.9666V26.9474ZM13.4324 14.7895H14.5676C17.8668 14.7895 20.5509 12.1154 20.5509 8.82858V5.96084C20.5509 2.67405 17.8668 0 14.5676 0H13.4324C10.1332 0 7.44906 2.67405 7.44906 5.9609V8.82858C7.44906 12.1154 10.1332 14.7895 13.4324 14.7895ZM14.5676 1.05263C14.6098 1.05263 14.6519 1.05316 14.6939 1.05421C14.7082 1.05458 14.7223 1.05532 14.7366 1.05579C14.7642 1.05674 14.7919 1.05758 14.8193 1.05895C14.8365 1.05979 14.8535 1.06111 14.8705 1.06216C14.895 1.06363 14.9197 1.06495 14.9441 1.06679C14.9627 1.06821 14.981 1.07005 14.9994 1.07163C15.0222 1.07363 15.0451 1.07542 15.0678 1.07768C15.0873 1.07968 15.1067 1.08205 15.1262 1.08426C15.1477 1.08668 15.1693 1.08889 15.1907 1.09163C15.2105 1.09411 15.2302 1.09711 15.2499 1.09979C15.2708 1.10268 15.2918 1.10537 15.3126 1.10858C15.3327 1.11163 15.3528 1.11516 15.3728 1.11847C15.3931 1.12179 15.4135 1.12495 15.4337 1.12853C15.4538 1.13211 15.4739 1.13611 15.494 1.13995C15.5138 1.14374 15.5339 1.14732 15.5537 1.15137C15.5742 1.15553 15.5945 1.16011 15.6149 1.16453C15.6341 1.16868 15.6534 1.17268 15.6726 1.17705C15.6932 1.18179 15.7137 1.18695 15.7343 1.19195C15.753 1.19647 15.7717 1.20084 15.7904 1.20563C15.8109 1.21089 15.8313 1.21653 15.8517 1.222C15.8702 1.227 15.8888 1.23184 15.9072 1.237C15.9277 1.24279 15.948 1.24895 15.9683 1.25495C15.9865 1.26032 16.0046 1.26553 16.0227 1.27111C16.0433 1.27747 16.0638 1.28426 16.0844 1.29084C16.1019 1.29653 16.1195 1.30205 16.137 1.30789C16.1577 1.31484 16.1782 1.32216 16.1988 1.32942C16.2159 1.33542 16.233 1.34126 16.2501 1.34742C16.2708 1.35495 16.2913 1.36279 16.3119 1.37063C16.3285 1.37695 16.3453 1.38311 16.3619 1.38958C16.3825 1.39763 16.4028 1.406 16.4232 1.41432C16.4396 1.421 16.4561 1.42753 16.4725 1.43437C16.493 1.443 16.5133 1.45189 16.5336 1.46074C16.5496 1.46768 16.5656 1.47453 16.5815 1.48163C16.6019 1.49079 16.6222 1.50026 16.6424 1.50963C16.6581 1.51689 16.6738 1.52405 16.6894 1.53153C16.7097 1.54121 16.7298 1.55121 16.7499 1.56111C16.7652 1.56868 16.7806 1.57611 16.7957 1.58384C16.8158 1.59405 16.8358 1.60458 16.8557 1.61505C16.8707 1.62289 16.8858 1.63068 16.9007 1.63874C16.9206 1.64942 16.9402 1.66037 16.9598 1.67126C16.9747 1.67947 16.9895 1.68763 17.0042 1.696C17.0239 1.70721 17.0434 1.71868 17.0629 1.73011C17.0772 1.73858 17.0917 1.74689 17.1059 1.75547C17.1255 1.76726 17.1448 1.77926 17.1642 1.79132C17.1783 1.80005 17.1924 1.80868 17.2063 1.81753C17.2256 1.82979 17.2447 1.84226 17.2638 1.85479C17.2776 1.86374 17.2914 1.87263 17.305 1.88174C17.324 1.89447 17.3429 1.90747 17.3617 1.92047C17.3752 1.92974 17.3887 1.93895 17.4021 1.94837C17.4209 1.96158 17.4395 1.97505 17.4582 1.98858C17.4712 1.99805 17.4843 2.00742 17.4973 2.01705C17.516 2.03084 17.5343 2.04484 17.5528 2.05884C17.5655 2.06853 17.5783 2.07816 17.5909 2.088C17.6093 2.10221 17.6274 2.11663 17.6455 2.13111C17.658 2.14111 17.6705 2.151 17.6828 2.16111C17.7009 2.17574 17.7187 2.19063 17.7364 2.20553C17.7486 2.21574 17.7608 2.22595 17.7729 2.23626C17.7906 2.25142 17.8081 2.26679 17.8256 2.28216C17.8375 2.29263 17.8494 2.303 17.8611 2.31363C17.8784 2.32911 17.8955 2.34484 17.9127 2.36063C17.9243 2.37142 17.936 2.38216 17.9476 2.39305C17.9645 2.40895 17.9813 2.42505 17.9979 2.44126C18.0093 2.45226 18.0207 2.46326 18.0321 2.47437C18.0486 2.49074 18.065 2.50726 18.0814 2.52384C18.0924 2.53505 18.1036 2.54632 18.1145 2.55763C18.1578 2.6026 18.2004 2.64831 18.2421 2.69474C18.2526 2.70642 18.2631 2.71816 18.2735 2.72995C18.2889 2.74747 18.3042 2.76521 18.3193 2.783C18.3296 2.795 18.3398 2.80695 18.3499 2.819C18.3649 2.83689 18.3797 2.85495 18.3945 2.87305C18.4045 2.88526 18.4144 2.89753 18.4243 2.90984C18.4387 2.928 18.4531 2.94632 18.4673 2.96468C18.5251 3.03931 18.5808 3.11548 18.6344 3.19311C18.6566 3.22543 18.6785 3.25803 18.6999 3.29089C18.7214 3.32375 18.7425 3.35688 18.7631 3.39026C18.7839 3.4237 18.8042 3.4574 18.8241 3.49137C18.8841 3.59339 18.9402 3.69761 18.9925 3.80379C19.01 3.83937 19.0271 3.87514 19.0438 3.91111C19.0605 3.94705 19.0767 3.98323 19.0924 4.01963C19.1328 4.11266 19.1703 4.20693 19.2047 4.30232C19.2109 4.31926 19.2168 4.33632 19.2228 4.35337C19.2361 4.39117 19.2488 4.42916 19.261 4.46732C19.2733 4.50549 19.2851 4.54383 19.2964 4.58232C19.3024 4.60284 19.3084 4.62342 19.3141 4.64411C19.3192 4.66216 19.3241 4.68032 19.329 4.69847C19.3345 4.71905 19.3399 4.73963 19.3451 4.76032C19.3498 4.77884 19.3543 4.79742 19.3588 4.81595C19.3684 4.85538 19.3774 4.89494 19.3858 4.93463C19.3902 4.95505 19.3945 4.97542 19.3986 4.99595C19.4025 5.01537 19.4062 5.03484 19.4099 5.05437C19.4137 5.07468 19.4175 5.09495 19.421 5.11537C19.4245 5.13526 19.4278 5.15526 19.431 5.17526C19.4343 5.19542 19.4375 5.21558 19.4406 5.23584C19.4436 5.25616 19.4464 5.27653 19.4492 5.29695C19.4549 5.33784 19.46 5.37883 19.4643 5.41989C19.4665 5.43974 19.4687 5.45963 19.4707 5.47958C19.4727 5.50089 19.4746 5.52232 19.4764 5.54374C19.478 5.56337 19.4797 5.583 19.4811 5.60268C19.4828 5.62453 19.4841 5.64647 19.4854 5.66842C19.4865 5.68784 19.4877 5.70732 19.4886 5.72679C19.4897 5.74905 19.4904 5.77142 19.4912 5.79374C19.4919 5.81305 19.4925 5.83232 19.493 5.85174C19.4931 5.85842 19.4931 5.86511 19.4932 5.87184C17.1647 5.64195 13.6224 4.94089 12.2228 2.81632C12.1728 2.74031 12.1038 2.67852 12.0226 2.63697C11.9414 2.59542 11.8509 2.57552 11.7597 2.57922C11.6685 2.58292 11.5798 2.61009 11.5023 2.65808C11.4248 2.70607 11.3611 2.77324 11.3174 2.85305C11.1328 3.11826 9.84786 4.25642 8.56885 5.17695L8.57196 5.15821C8.58274 5.09332 8.59452 5.02874 8.60783 4.96468C8.60894 4.95911 8.61032 4.95353 8.61148 4.9479C8.62511 4.88347 8.63996 4.81947 8.65612 4.756L8.65945 4.74232C8.67586 4.67886 8.69357 4.61574 8.71254 4.553C8.71534 4.54379 8.71804 4.53447 8.72089 4.52526C8.74267 4.45449 8.76608 4.38423 8.7911 4.31453C8.81231 4.25525 8.83469 4.19639 8.85825 4.138C8.86179 4.12911 8.86549 4.12032 8.86913 4.11147C8.89353 4.05163 8.91914 3.99229 8.94595 3.93347C8.94806 3.92884 8.95028 3.92426 8.95245 3.91963C8.97991 3.85981 9.00864 3.80057 9.03861 3.74195L9.04263 3.734C9.07257 3.67582 9.1037 3.61825 9.13598 3.56132C9.14005 3.55405 9.14406 3.54674 9.14818 3.53953C9.17951 3.48483 9.21189 3.43073 9.24528 3.37726C9.25057 3.36879 9.2558 3.36037 9.26113 3.35195C9.29466 3.29897 9.32916 3.24661 9.36463 3.1949L9.38 3.17284C9.41668 3.12 9.45437 3.06787 9.49306 3.01647L9.50188 3.00505C9.54214 2.95205 9.58334 2.89979 9.62566 2.84853L9.62851 2.845C9.67047 2.79438 9.71343 2.7446 9.75737 2.69568C9.76249 2.69 9.7674 2.68426 9.77258 2.67863C9.81496 2.63181 9.85824 2.5858 9.90239 2.54063C9.9091 2.53384 9.9157 2.527 9.92241 2.52026C9.96647 2.47561 10.0114 2.43179 10.0571 2.38884L10.0767 2.37068C10.1237 2.32692 10.1716 2.28409 10.2203 2.24221C10.2241 2.23889 10.228 2.23568 10.232 2.23237C10.2828 2.18891 10.3345 2.14649 10.3871 2.10516L10.3891 2.10358C10.4411 2.06284 10.494 2.02315 10.5476 1.98453L10.5658 1.97132C10.6173 1.93447 10.6696 1.89874 10.7226 1.86384C10.7306 1.85847 10.7388 1.85316 10.7469 1.84789C10.7996 1.81362 10.8529 1.78035 10.9068 1.74811C10.9148 1.74332 10.923 1.73858 10.931 1.73384C10.9863 1.70119 11.0422 1.6696 11.0987 1.63911C11.1041 1.63621 11.1094 1.63347 11.1148 1.63063C11.1739 1.59898 11.2337 1.56857 11.2941 1.53942L11.2958 1.53858C11.356 1.50973 11.4167 1.48209 11.478 1.45568C11.4851 1.45263 11.4921 1.44947 11.4991 1.44647C11.5579 1.42146 11.6172 1.39758 11.6769 1.37484C11.6866 1.37116 11.6962 1.36747 11.7059 1.36389C11.7748 1.33813 11.8442 1.31395 11.9142 1.29137C11.9757 1.27137 12.0377 1.25259 12.1 1.23505C12.1069 1.23311 12.114 1.23132 12.1209 1.22942C12.1864 1.21127 12.2523 1.19448 12.3186 1.17905L12.3199 1.17874C12.3863 1.16353 12.453 1.1497 12.52 1.13726C12.528 1.13574 12.5362 1.13405 12.5443 1.13258C12.6085 1.12096 12.673 1.11061 12.7376 1.10153C12.7486 1.1 12.7595 1.09842 12.7706 1.09695C12.8349 1.08829 12.8994 1.08092 12.9639 1.07484C12.975 1.07379 12.986 1.07289 12.9971 1.07189C13.0633 1.06602 13.1296 1.06147 13.196 1.05826C13.2043 1.05784 13.2126 1.05763 13.221 1.05732C13.2915 1.05419 13.3621 1.05258 13.4327 1.05247L14.5676 1.05263ZM8.50566 6.49958C9.58672 5.78842 10.9931 4.66026 11.7462 3.92742C12.8314 5.17037 15.0328 6.51689 19.4943 6.93005V8.82858C19.4943 11.535 17.2842 13.7368 14.5676 13.7368H13.4324C10.7158 13.7368 8.50566 11.535 8.50566 8.82858V6.49958Z"
                                fill="white"
                            />
                        </svg>