<svg width="{28}" height="{28}" viewBox="0 0 28 28" fill="none" xmlns="http://www.w3.org/2000/svg" className="w-7 h-7 relative" preserveAspectRatio="none"><path d="M15.0966 25.6668H12.8916C12.3718 25.6668 11.8732 25.4603 11.5057 25.0928C11.1381 24.7252 10.9316 24.2267 10.9316 23.7068V22.4352C10.9253 22.3602 10.8978 22.2887 10.8523 22.2288C10.8069 22.1689 10.7454 22.1231 10.6749 22.0968C10.6035 22.0511 10.5205 22.0268 10.4358 22.0268C10.351 22.0268 10.268 22.0511 10.1966 22.0968L9.33325 23.0302C9.15216 23.2125 8.93677 23.3573 8.6995 23.456C8.46223 23.5548 8.20776 23.6057 7.95075 23.6057C7.69374 23.6057 7.43928 23.5548 7.202 23.456C6.96473 23.3573 6.74935 23.2125 6.56825 23.0302L4.96992 21.4668C4.78491 21.2861 4.63797 21.0701 4.53778 20.8317C4.4376 20.5932 4.38619 20.3371 4.38659 20.0785C4.38733 19.5494 4.59699 19.0421 4.96992 18.6668L5.83325 17.8035C5.87493 17.7392 5.89711 17.6643 5.89711 17.5877C5.89711 17.5111 5.87493 17.4361 5.83325 17.3718C5.76325 17.1968 5.64658 17.0685 5.48325 17.0685H4.29325C3.77236 17.0654 3.27385 16.8563 2.90661 16.4869C2.53937 16.1175 2.33324 15.6177 2.33325 15.0968V12.8918C2.33325 12.372 2.53975 11.8735 2.90732 11.5059C3.27489 11.1383 3.77343 10.9318 4.29325 10.9318H5.56492C5.63984 10.9255 5.71142 10.898 5.77133 10.8526C5.83123 10.8071 5.87698 10.7456 5.90325 10.6752C5.94899 10.6038 5.9733 10.5208 5.9733 10.436C5.9733 10.3512 5.94899 10.2682 5.90325 10.1968L4.96992 9.3335C4.78755 9.1524 4.64281 8.93702 4.54405 8.69974C4.44528 8.46247 4.39443 8.208 4.39443 7.951C4.39443 7.69399 4.44528 7.43952 4.54405 7.20225C4.64281 6.96498 4.78755 6.74959 4.96992 6.5685L6.53325 4.97016C6.71222 4.78603 6.92621 4.63956 7.16264 4.53938C7.39906 4.4392 7.65314 4.38733 7.90992 4.38683C8.17387 4.38567 8.43546 4.4366 8.6797 4.5367C8.92394 4.6368 9.14603 4.7841 9.33325 4.97016L10.1966 5.8335C10.2609 5.87518 10.3358 5.89736 10.4124 5.89736C10.489 5.89736 10.564 5.87518 10.6283 5.8335C10.8033 5.7635 10.9316 5.64683 10.9316 5.4835V4.2935C10.9347 3.7726 11.1438 3.27409 11.5132 2.90685C11.8826 2.53961 12.3823 2.33349 12.9033 2.3335H15.1666C15.6864 2.3335 16.1849 2.54 16.5525 2.90757C16.9201 3.27514 17.1266 3.77367 17.1266 4.2935V5.56516C17.1329 5.64008 17.1604 5.71167 17.2058 5.77157C17.2513 5.83147 17.3128 5.87722 17.3833 5.9035C17.4546 5.94923 17.5376 5.97354 17.6224 5.97354C17.7072 5.97354 17.7902 5.94923 17.8616 5.9035L18.6666 4.97016C18.8477 4.78779 19.0631 4.64306 19.3003 4.54429C19.5376 4.44552 19.7921 4.39467 20.0491 4.39467C20.3061 4.39467 20.5606 4.44552 20.7978 4.54429C21.0351 4.64306 21.2505 4.78779 21.4316 4.97016L23.0299 6.5335C23.2144 6.71463 23.361 6.93067 23.4611 7.16903C23.5613 7.40738 23.613 7.66329 23.6133 7.92183C23.6189 8.18467 23.57 8.44583 23.4695 8.6888C23.3691 8.93178 23.2194 9.1513 23.0299 9.3335L22.1666 10.1968C22.1249 10.2611 22.1027 10.3361 22.1027 10.4127C22.1027 10.4893 22.1249 10.5642 22.1666 10.6285C22.2366 10.8035 22.3533 10.9318 22.5166 10.9318H23.7883C24.2948 10.9558 24.7727 11.1741 25.1225 11.5413C25.4723 11.9085 25.6672 12.3964 25.6666 12.9035V15.1668C25.6666 15.6867 25.4601 16.1852 25.0925 16.5528C24.7249 16.9203 24.2264 17.1268 23.7066 17.1268H22.4349C22.36 17.1331 22.2884 17.1606 22.2285 17.2061C22.1686 17.2515 22.1229 17.313 22.0966 17.3835C22.0549 17.4478 22.0327 17.5227 22.0327 17.5993C22.0327 17.6759 22.0549 17.7509 22.0966 17.8152L22.9949 18.7135C23.1773 18.8946 23.322 19.11 23.4208 19.3472C23.5196 19.5845 23.5704 19.839 23.5704 20.096C23.5704 20.353 23.5196 20.6075 23.4208 20.8447C23.322 21.082 23.1773 21.2974 22.9949 21.4785L21.4666 23.0302C21.2876 23.2143 21.0736 23.3608 20.8372 23.4609C20.6008 23.5611 20.3467 23.613 20.0899 23.6135C19.569 23.6067 19.0711 23.3975 18.7016 23.0302L17.8033 22.1668C17.739 22.1251 17.664 22.103 17.5874 22.103C17.5108 22.103 17.4359 22.1251 17.3716 22.1668C17.1966 22.2368 17.0683 22.3535 17.0683 22.5168V23.7885C17.0442 24.2951 16.826 24.7729 16.4588 25.1227C16.0916 25.4725 15.6037 25.6674 15.0966 25.6668ZM13.2649 23.3335H14.7349V22.4352C14.7399 21.8972 14.9044 21.3727 15.2076 20.9283C15.5108 20.4838 15.9391 20.1394 16.4383 19.9385C16.9394 19.7194 17.4945 19.6546 18.0326 19.7522C18.5708 19.8499 19.0677 20.1056 19.4599 20.4868L20.0899 21.1168L21.1166 20.0902L20.4866 19.4485C20.1078 19.0622 19.8523 18.572 19.7526 18.0403C19.6529 17.5085 19.7135 16.9591 19.9266 16.4618C20.1293 15.9649 20.4745 15.5391 20.9188 15.238C21.3631 14.937 21.8866 14.7742 22.4233 14.7702H23.3333V13.2652H22.4349C21.8969 13.2602 21.3725 13.0957 20.928 12.7925C20.4836 12.4892 20.1391 12.061 19.9383 11.5618C19.7192 11.0607 19.6543 10.5056 19.752 9.96745C19.8497 9.42928 20.1054 8.9324 20.4866 8.54016L21.1166 7.91016L20.0899 6.8835L19.4483 7.5135C19.0559 7.87185 18.5694 8.11065 18.0459 8.20177C17.5224 8.2929 16.9838 8.23255 16.4935 8.02783C16.0031 7.82312 15.5815 7.48256 15.2782 7.04627C14.9749 6.60997 14.8026 6.0961 14.7816 5.56516V4.66683H13.2649V5.56516C13.2599 6.10317 13.0954 6.6276 12.7922 7.07204C12.489 7.51649 12.0607 7.86096 11.5616 8.06183C11.0604 8.2809 10.5054 8.34573 9.9672 8.24807C9.42904 8.15042 8.93216 7.89469 8.53992 7.5135L7.90992 6.8835L6.88325 7.91016L7.51325 8.55183C7.87161 8.94415 8.11041 9.4307 8.20153 9.95418C8.29265 10.4777 8.2323 11.0163 8.02759 11.5066C7.82287 11.9969 7.48232 12.4186 7.04602 12.7219C6.60972 13.0251 6.09585 13.1975 5.56492 13.2185H4.66659V14.6885H5.56492C6.10292 14.6935 6.62735 14.858 7.0718 15.1612C7.51624 15.4644 7.86071 15.8927 8.06158 16.3918C8.28065 16.893 8.34549 17.448 8.24783 17.9862C8.15017 18.5244 7.89444 19.0213 7.51325 19.4135L6.88325 20.0435L7.90992 21.0702L8.55158 20.4402C8.94391 20.0818 9.43045 19.843 9.95393 19.7519C10.4774 19.6608 11.016 19.7211 11.5064 19.9258C11.9967 20.1305 12.4183 20.4711 12.7216 20.9074C13.0249 21.3437 13.1972 21.8576 13.2183 22.3885L13.2649 23.3335Z" fill="white"/><path d="M14.0001 18.0832C13.1925 18.0832 12.403 17.8437 11.7315 17.395C11.06 16.9463 10.5366 16.3086 10.2276 15.5625C9.91852 14.8163 9.83765 13.9953 9.99521 13.2032C10.1528 12.4111 10.5417 11.6836 11.1127 11.1125C11.6838 10.5414 12.4114 10.1525 13.2035 9.99497C13.9956 9.83741 14.8166 9.91827 15.5627 10.2273C16.3088 10.5364 16.9466 11.0598 17.3953 11.7313C17.8439 12.4028 18.0834 13.1922 18.0834 13.9998C18.0834 15.0828 17.6532 16.1214 16.8874 16.8872C16.1217 17.653 15.0831 18.0832 14.0001 18.0832ZM14.0001 12.2498C13.654 12.2498 13.3156 12.3525 13.0278 12.5448C12.7401 12.7371 12.5157 13.0104 12.3833 13.3301C12.2508 13.6499 12.2162 14.0018 12.2837 14.3412C12.3512 14.6807 12.5179 14.9925 12.7626 15.2373C13.0074 15.482 13.3192 15.6487 13.6587 15.7162C13.9981 15.7837 14.35 15.7491 14.6698 15.6166C14.9896 15.4842 15.2629 15.2599 15.4552 14.9721C15.6474 14.6843 15.7501 14.346 15.7501 13.9998C15.7501 13.5357 15.5657 13.0906 15.2375 12.7624C14.9093 12.4342 14.4642 12.2498 14.0001 12.2498Z" fill="white"/></svg>