<svg
                            width={28}
                            height={28}
                            viewBox="0 0 28 28"
                            fill="none"
                            xmlns="http://www.w3.org/2000/svg"
                            className="w-7 h-7 relative"
                            preserveAspectRatio="none"
                        >
                            <g clip-path="url(#clip0_225_1317)">
                                <path
                                    fill-rule="evenodd"
                                    clip-rule="evenodd"
                                    d="M22.9699 0.758233C22.9273 0.586292 22.8397 0.428769 22.7162 0.301779C22.5927 0.17479 22.4376 0.0828926 22.2669 0.0354891C22.0962 -0.0119144 21.916 -0.0131224 21.7447 0.0319887C21.5734 0.0770998 21.4171 0.166911 21.2919 0.292233L17.2919 4.29223C17.1699 4.41448 17.0817 4.56624 17.0358 4.73272C16.9899 4.8992 16.9878 5.07474 17.0299 5.24223L17.7499 8.13023C17.7405 8.13944 17.7311 8.14877 17.7219 8.15823L12.9399 12.9402C12.675 13.2246 12.5307 13.6007 12.5376 13.9893C12.5444 14.3779 12.7018 14.7487 12.9767 15.0235C13.2515 15.2983 13.6223 15.4557 14.0109 15.4626C14.3995 15.4694 14.7756 15.3252 15.0599 15.0602L19.8459 10.2802C19.8554 10.2704 19.8647 10.2604 19.8739 10.2502L22.7599 10.9722C22.9274 11.0143 23.1029 11.0123 23.2694 10.9664C23.4359 10.9205 23.5877 10.8322 23.7099 10.7102L27.7099 6.71023C27.8358 6.58507 27.926 6.42867 27.9714 6.2571C28.0169 6.08552 28.0158 5.90495 27.9683 5.73392C27.9209 5.56289 27.8288 5.40757 27.7015 5.2839C27.5742 5.16024 27.4162 5.07268 27.2439 5.03023L23.8259 4.17823L22.9699 0.758233ZM14.6339 1.51823C14.6614 1.91497 14.5302 2.30639 14.2692 2.60642C14.0081 2.90645 13.6386 3.09055 13.2419 3.11823C11.1523 3.26305 9.1482 4.0047 7.46772 5.25506C5.78724 6.50542 4.50104 8.21194 3.76194 10.1718C3.02284 12.1317 2.86193 14.2626 3.29831 16.3112C3.73469 18.3599 4.75002 20.2402 6.22367 21.7288C7.69731 23.2173 9.56731 24.2515 11.6115 24.7085C13.6556 25.1655 15.788 25.026 17.7552 24.3067C19.7225 23.5874 21.4418 22.3184 22.7091 20.6506C23.9763 18.9828 24.7381 16.9863 24.9039 14.8982C24.9355 14.5015 25.1234 14.1335 25.4262 13.8753C25.7291 13.617 26.1221 13.4897 26.5189 13.5212C26.9157 13.5528 27.2837 13.7407 27.5419 14.0435C27.8001 14.3464 27.9275 14.7395 27.8959 15.1362C27.6843 17.7967 26.7134 20.3404 25.0985 22.4653C23.4837 24.5902 21.2929 26.2068 18.7863 27.1232C16.2797 28.0396 13.5627 28.2172 10.9582 27.6349C8.35367 27.0525 5.97104 25.7348 4.09338 23.8382C2.21572 21.9416 0.921973 19.5458 0.365835 16.9356C-0.190303 14.3253 0.0145493 11.6103 0.956054 9.11302C1.89756 6.61577 3.53614 4.44127 5.67712 2.84787C7.8181 1.25447 10.3715 0.309157 13.0339 0.124233C13.4307 0.0967556 13.8221 0.227954 14.1221 0.488984C14.4221 0.750014 14.6062 1.12151 14.6339 1.51823ZM13.2899 8.11623C13.3618 8.29969 13.3968 8.4955 13.393 8.69249C13.3892 8.88948 13.3466 9.08379 13.2676 9.26432C13.1887 9.44484 13.075 9.60805 12.933 9.74462C12.7909 9.88118 12.6234 9.98843 12.4399 10.0602C11.784 10.3175 11.2025 10.7342 10.7481 11.2726C10.2936 11.811 9.98054 12.4542 9.83706 13.144C9.69359 13.8338 9.72428 14.5485 9.92636 15.2235C10.1284 15.8985 10.4955 16.5124 10.9945 17.0099C11.4934 17.5074 12.1084 17.8727 12.784 18.0728C13.4595 18.2729 14.1743 18.3015 14.8637 18.1561C15.5531 18.0106 16.1954 17.6956 16.7325 17.2396C17.2695 16.7836 17.6845 16.2009 17.9399 15.5442C18.0114 15.3606 18.1183 15.1929 18.2545 15.0507C18.3908 14.9084 18.5537 14.7943 18.734 14.715C18.9144 14.6357 19.1086 14.5927 19.3055 14.5885C19.5025 14.5842 19.6983 14.6188 19.8819 14.6902C20.0655 14.7617 20.2332 14.8686 20.3755 15.0048C20.5178 15.1411 20.6318 15.304 20.7111 15.4844C20.7904 15.6647 20.8334 15.8589 20.8377 16.0558C20.8419 16.2528 20.8074 16.4486 20.7359 16.6322C20.2997 17.7536 19.5909 18.7486 18.6736 19.5272C17.7563 20.3058 16.6594 20.8436 15.4821 21.0918C14.3047 21.34 13.0841 21.2909 11.9305 20.9489C10.7769 20.6069 9.72678 19.9828 8.87498 19.133C8.02318 18.2832 7.39661 17.2345 7.0519 16.0817C6.70719 14.9289 6.65522 13.7084 6.90069 12.5305C7.14615 11.3526 7.68132 10.2545 8.45779 9.33532C9.23427 8.41618 10.2276 7.70506 11.3479 7.26623C11.7182 7.12171 12.1307 7.13005 12.4948 7.28942C12.8589 7.44879 13.1449 7.74617 13.2899 8.11623Z"
                                    fill="white"
                                />
                            </g>                           
                        </svg>