<svg width="28" height="28" viewBox="0 0 28 28" fill="none" xmlns="http://www.w3.org/2000/svg">
<path d="M10.5007 2.86765V5.34565C8.49506 6.16003 6.83475 7.64597 5.80372 9.54928C4.77269 11.4526 4.43501 13.655 4.84845 15.7798C5.26188 17.9046 6.40074 19.8197 8.07021 21.1975C9.73968 22.5754 11.836 23.3304 14.0007 23.3333C15.8603 23.3335 17.6776 22.7784 19.2197 21.7391C20.7617 20.6998 21.9584 19.2237 22.6562 17.5H25.133C23.6467 22.2331 19.225 25.6666 14.0007 25.6666C7.55715 25.6666 2.33398 20.4435 2.33398 14C2.33398 8.77565 5.76748 4.35398 10.5007 2.86765ZM14.0007 2.33331C20.4442 2.33331 25.6673 7.55648 25.6673 14C25.6673 14.3943 25.6475 14.7828 25.609 15.1666H12.834V2.39165C13.2178 2.35315 13.6063 2.33331 14.0007 2.33331ZM15.1673 4.73898V12.8333H23.2617C23.002 10.7772 22.0657 8.86587 20.6002 7.40042C19.1348 5.93497 17.2234 4.99866 15.1673 4.73898Z" fill="white"/>
</svg>
