<svg width="28" height="28" viewBox="0 0 28 28" fill="none" xmlns="http://www.w3.org/2000/svg">
<path d="M20.8425 24.885H7.105L6.23 24.01V12.355H3.7625L2.9225 11.69L1.75 7L2.3275 5.95L9.7825 3.5L10.9025 4.06C11.0015 4.32722 11.1245 4.58494 11.27 4.83C11.3948 5.01083 11.5348 5.18 11.69 5.3375C11.984 5.63325 12.3357 5.866 12.7225 6.02C13.118 6.18897 13.5437 6.27608 13.9738 6.27608C14.4038 6.27608 14.8295 6.18897 15.225 6.02C15.6132 5.8674 15.965 5.63487 16.2575 5.3375C16.415 5.17067 16.5608 4.99567 16.695 4.8125L16.9575 4.305C16.9927 4.22562 17.022 4.14372 17.045 4.06L18.165 3.5L25.62 5.985L26.25 7L25.095 11.655L24.2375 12.32H21.7175V23.975L20.8425 24.885ZM7.98 23.135H19.9675V11.48L20.8425 10.605H23.5025L24.3075 7.4025L18.3575 5.4075C18.3026 5.53805 18.2321 5.66145 18.1475 5.775C17.955 6.05733 17.7392 6.31983 17.5 6.5625C17.0461 7.02154 16.5046 7.38457 15.9075 7.63C15.2929 7.88991 14.6323 8.02383 13.965 8.02383C13.2977 8.02383 12.6371 7.88991 12.0225 7.63C11.4536 7.37097 10.9374 7.00906 10.5 6.5625C10.2576 6.33416 10.0458 6.07533 9.87 5.7925L9.6425 5.4075L3.64 7.4025L4.445 10.605H7.105L7.98 11.48V23.135Z" fill="white"/>
</svg>
