<svg width="28" height="28" viewBox="0 0 28 28" fill="none" xmlns="http://www.w3.org/2000/svg">
<path d="M23.9173 7H4.08398C3.11749 7 2.33398 7.7835 2.33398 8.75V21.5833C2.33398 22.5498 3.11749 23.3333 4.08398 23.3333H23.9173C24.8838 23.3333 25.6673 22.5498 25.6673 21.5833V8.75C25.6673 7.7835 24.8838 7 23.9173 7Z" stroke="white" stroke-width="2.33333" stroke-linejoin="round"/>
<path d="M8.16771 3.5V7M19.8344 3.5V7M5.9668 14L8.75105 11.0932V19.25M14.001 7V23.3333" stroke="white" stroke-width="2.33333" stroke-linecap="round" stroke-linejoin="round"/>
<path d="M19.834 19.25C20.8005 19.25 21.584 17.4219 21.584 15.1667C21.584 12.9115 20.8005 11.0834 19.834 11.0834C18.8675 11.0834 18.084 12.9115 18.084 15.1667C18.084 17.4219 18.8675 19.25 19.834 19.25Z" stroke="white" stroke-width="2.33333" stroke-linejoin="round"/>
<path d="M12.25 7H15.75M12.25 23.3333H15.75" stroke="white" stroke-width="2.33333" stroke-linecap="round" stroke-linejoin="round"/>
</svg>
