<svg width="28" height="28" viewBox="0 0 28 28" fill="none" xmlns="http://www.w3.org/2000/svg">
<path d="M8.16602 23.3333C7.52435 23.3333 6.97524 23.105 6.51868 22.6485C6.06213 22.1919 5.83346 21.6424 5.83268 21V10.2083L1.16602 4.66663H23.3327C23.9743 4.66663 24.5238 4.89529 24.9812 5.35263C25.4385 5.80996 25.6668 6.35907 25.666 6.99996V21C25.666 21.6416 25.4377 22.1911 24.9812 22.6485C24.5246 23.1058 23.9751 23.3341 23.3327 23.3333H8.16602ZM8.16602 6.99996V21H23.3327V6.99996H8.16602ZM15.7493 20.4166L17.3827 18.7833L16.0993 17.5H20.9993V15.1666H10.4993L15.7493 20.4166ZM10.4993 12.8333H20.9993L15.7493 7.58329L14.116 9.21663L15.3993 10.5H10.4993V12.8333Z" fill="white"/>
</svg>
