<svg width="28" height="28" viewBox="0 0 28 28" fill="none" xmlns="http://www.w3.org/2000/svg">
<path d="M17.499 21V21.875C17.499 22.8033 17.1303 23.6935 16.4739 24.3499C15.8175 25.0063 14.9273 25.375 13.999 25.375C13.0708 25.375 12.1806 25.0063 11.5242 24.3499C10.8678 23.6935 10.499 22.8033 10.499 21.875V21M23.3878 19.2188C21.9834 17.5 20.9919 16.625 20.9919 11.8863C20.9919 7.54688 18.776 6.00086 16.9522 5.25C16.7099 5.15047 16.4819 4.92187 16.408 4.67305C16.0881 3.58422 15.1912 2.625 13.999 2.625C12.8069 2.625 11.9094 3.58477 11.5928 4.67414C11.519 4.9257 11.2909 5.15047 11.0487 5.25C9.22264 6.00195 7.00889 7.5425 7.00889 11.8863C7.00616 16.625 6.01467 17.5 4.6103 19.2188C4.02842 19.9309 4.53811 21 5.55585 21H22.4477C23.46 21 23.9664 19.9276 23.3878 19.2188Z" stroke="white" stroke-width="1.75" stroke-linecap="round" stroke-linejoin="round"/>
</svg>
