<svg width="28" height="28" viewBox="0 0 28 28" fill="none" xmlns="http://www.w3.org/2000/svg">
<path d="M22.1667 8.75002C23.7775 8.75002 25.0833 7.44418 25.0833 5.83335C25.0833 4.22252 23.7775 2.91669 22.1667 2.91669C20.5558 2.91669 19.25 4.22252 19.25 5.83335C19.25 7.44418 20.5558 8.75002 22.1667 8.75002Z" stroke="white" stroke-width="1.75"/>
<path d="M24.7923 11.6667V17.7917C24.7923 19.6482 24.0548 21.4287 22.7421 22.7415C21.4293 24.0542 19.6488 24.7917 17.7923 24.7917H10.209C8.35247 24.7917 6.57199 24.0542 5.25924 22.7415C3.94648 21.4287 3.20898 19.6482 3.20898 17.7917V10.2084C3.20898 8.35186 3.94648 6.57138 5.25924 5.25863C6.57199 3.94587 8.35247 3.20837 10.209 3.20837H16.334" stroke="white" stroke-width="1.75" stroke-linecap="round"/>
<path d="M9.65625 18.7087V13.5894M14.1246 18.7087V10.2305M18.3456 18.7087V12.2804" stroke="white" stroke-width="1.86667" stroke-linecap="round"/>
</svg>
