<svg width="28" height="28" viewBox="0 0 28 28" fill="none" xmlns="http://www.w3.org/2000/svg">
<path d="M15.0973 25.6667H12.8923C12.3725 25.6667 11.874 25.4602 11.5064 25.0926C11.1388 24.7251 10.9323 24.2265 10.9323 23.7067V22.435C10.926 22.3601 10.8985 22.2885 10.8531 22.2286C10.8076 22.1687 10.7461 22.123 10.6757 22.0967C10.6043 22.051 10.5213 22.0267 10.4365 22.0267C10.3517 22.0267 10.2687 22.051 10.1973 22.0967L9.33398 23.03C9.15289 23.2124 8.9375 23.3571 8.70023 23.4559C8.46296 23.5547 8.20849 23.6055 7.95148 23.6055C7.69448 23.6055 7.44001 23.5547 7.20274 23.4559C6.96546 23.3571 6.75008 23.2124 6.56898 23.03L4.97065 21.4667C4.78564 21.286 4.63871 21.07 4.53852 20.8316C4.43833 20.5931 4.38692 20.337 4.38732 20.0784C4.38807 19.5493 4.59772 19.042 4.97065 18.6667L5.83398 17.8034C5.87566 17.7391 5.89784 17.6641 5.89784 17.5875C5.89784 17.5109 5.87566 17.436 5.83398 17.3717C5.76398 17.1967 5.64732 17.0684 5.48398 17.0684H4.29398C3.77309 17.0653 3.27458 16.8562 2.90734 16.4868C2.5401 16.1174 2.33398 15.6176 2.33398 15.0967V12.8917C2.33398 12.3719 2.54048 11.8733 2.90806 11.5058C3.27563 11.1382 3.77416 10.9317 4.29398 10.9317H5.56565C5.64057 10.9254 5.71216 10.8979 5.77206 10.8525C5.83196 10.807 5.87771 10.7455 5.90398 10.675C5.94972 10.6037 5.97403 10.5207 5.97403 10.4359C5.97403 10.3511 5.94972 10.2681 5.90398 10.1967L4.97065 9.33337C4.78828 9.15228 4.64355 8.93689 4.54478 8.69962C4.44601 8.46235 4.39516 8.20788 4.39516 7.95087C4.39516 7.69387 4.44601 7.4394 4.54478 7.20213C4.64355 6.96485 4.78828 6.74947 4.97065 6.56837L6.53398 4.97004C6.71295 4.78591 6.92694 4.63944 7.16337 4.53926C7.3998 4.43908 7.65388 4.38721 7.91065 4.38671C8.1746 4.38555 8.43619 4.43648 8.68043 4.53658C8.92467 4.63667 9.14676 4.78397 9.33398 4.97004L10.1973 5.83337C10.2616 5.87505 10.3365 5.89723 10.4132 5.89723C10.4898 5.89723 10.5647 5.87505 10.629 5.83337C10.804 5.76337 10.9323 5.64671 10.9323 5.48337V4.29337C10.9354 3.77248 11.1445 3.27397 11.5139 2.90673C11.8833 2.53949 12.3831 2.33336 12.904 2.33337H15.1673C15.6871 2.33337 16.1857 2.53987 16.5532 2.90744C16.9208 3.27502 17.1273 3.77355 17.1273 4.29337V5.56504C17.1336 5.63996 17.1611 5.71155 17.2066 5.77145C17.252 5.83135 17.3135 5.8771 17.384 5.90337C17.4554 5.94911 17.5384 5.97342 17.6231 5.97342C17.7079 5.97342 17.7909 5.94911 17.8623 5.90337L18.6673 4.97004C18.8484 4.78767 19.0638 4.64294 19.3011 4.54417C19.5383 4.4454 19.7928 4.39455 20.0498 4.39455C20.3068 4.39455 20.5613 4.4454 20.7986 4.54417C21.0358 4.64294 21.2512 4.78767 21.4323 4.97004L23.0306 6.53337C23.2151 6.71451 23.3617 6.93055 23.4619 7.1689C23.562 7.40726 23.6137 7.66317 23.614 7.92171C23.6196 8.18455 23.5707 8.44571 23.4703 8.68868C23.3699 8.93166 23.2202 9.15118 23.0306 9.33337L22.1673 10.1967C22.1256 10.261 22.1035 10.3359 22.1035 10.4125C22.1035 10.4891 22.1256 10.5641 22.1673 10.6284C22.2373 10.8034 22.354 10.9317 22.5173 10.9317H23.789C24.2956 10.9557 24.7734 11.174 25.1232 11.5412C25.473 11.9084 25.6679 12.3962 25.6673 12.9034V15.1667C25.6673 15.6865 25.4608 16.1851 25.0932 16.5526C24.7257 16.9202 24.2271 17.1267 23.7073 17.1267H22.4356C22.3607 17.133 22.2891 17.1605 22.2292 17.2059C22.1693 17.2514 22.1236 17.3129 22.0973 17.3834C22.0556 17.4476 22.0335 17.5226 22.0335 17.5992C22.0335 17.6758 22.0556 17.7508 22.0973 17.815L22.9956 18.7134C23.178 18.8945 23.3228 19.1099 23.4215 19.3471C23.5203 19.5844 23.5711 19.8389 23.5711 20.0959C23.5711 20.3529 23.5203 20.6074 23.4215 20.8446C23.3228 21.0819 23.178 21.2973 22.9956 21.4784L21.4673 23.03C21.2884 23.2142 21.0744 23.3606 20.8379 23.4608C20.6015 23.561 20.3474 23.6129 20.0907 23.6134C19.5697 23.6065 19.0718 23.3973 18.7023 23.03L17.804 22.1667C17.7397 22.125 17.6648 22.1028 17.5882 22.1028C17.5115 22.1028 17.4366 22.125 17.3723 22.1667C17.1973 22.2367 17.069 22.3534 17.069 22.5167V23.7884C17.045 24.2949 16.8267 24.7728 16.4595 25.1226C16.0923 25.4724 15.6045 25.6673 15.0973 25.6667ZM13.2657 23.3334H14.7357V22.435C14.7406 21.897 14.9051 21.3726 15.2084 20.9282C15.5116 20.4837 15.9399 20.1392 16.439 19.9384C16.9401 19.7193 17.4952 19.6545 18.0334 19.7521C18.5715 19.8498 19.0684 20.1055 19.4607 20.4867L20.0907 21.1167L21.1173 20.09L20.4873 19.4484C20.1085 19.0621 19.8531 18.5719 19.7534 18.0402C19.6537 17.5084 19.7142 16.959 19.9273 16.4617C20.13 15.9648 20.4752 15.5389 20.9195 15.2379C21.3638 14.9369 21.8873 14.7741 22.424 14.77H23.334V13.265H22.4356C21.8976 13.2601 21.3732 13.0956 20.9288 12.7923C20.4843 12.4891 20.1399 12.0608 19.939 11.5617C19.7199 11.0605 19.6551 10.5055 19.7527 9.96732C19.8504 9.42916 20.1061 8.93228 20.4873 8.54004L21.1173 7.91004L20.0907 6.88337L19.449 7.51337C19.0567 7.87173 18.5701 8.11053 18.0466 8.20165C17.5232 8.29277 16.9845 8.23242 16.4942 8.02771C16.0039 7.82299 15.5822 7.48244 15.2789 7.04614C14.9757 6.60985 14.8034 6.09598 14.7823 5.56504V4.66671H13.2657V5.56504C13.2607 6.10305 13.0962 6.62748 12.793 7.07192C12.4897 7.51637 12.0614 7.86084 11.5623 8.06171C11.0612 8.28077 10.5061 8.34561 9.96793 8.24795C9.42977 8.15029 8.93289 7.89456 8.54065 7.51337L7.91065 6.88337L6.88398 7.91004L7.51398 8.55171C7.87234 8.94403 8.11114 9.43057 8.20226 9.95406C8.29338 10.4775 8.23303 11.0162 8.02832 11.5065C7.82361 11.9968 7.48305 12.4185 7.04675 12.7217C6.61046 13.025 6.09659 13.1973 5.56565 13.2184H4.66732V14.6884H5.56565C6.10366 14.6933 6.62809 14.8579 7.07253 15.1611C7.51698 15.4643 7.86145 15.8926 8.06232 16.3917C8.28138 16.8929 8.34622 17.4479 8.24856 17.9861C8.1509 18.5243 7.89517 19.0211 7.51398 19.4134L6.88398 20.0434L7.91065 21.07L8.55232 20.44C8.94464 20.0817 9.43118 19.8429 9.95467 19.7518C10.4781 19.6606 11.0168 19.721 11.5071 19.9257C11.9974 20.1304 12.4191 20.471 12.7224 20.9073C13.0256 21.3436 13.1979 21.8574 13.219 22.3884L13.2657 23.3334Z" fill="white"/>
<path d="M13.9994 18.0833C13.1917 18.0833 12.4023 17.8438 11.7308 17.3951C11.0593 16.9464 10.5359 16.3087 10.2268 15.5626C9.91778 14.8165 9.83692 13.9954 9.99448 13.2033C10.152 12.4113 10.5409 11.6837 11.112 11.1126C11.6831 10.5415 12.4106 10.1526 13.2027 9.99509C13.9948 9.83753 14.8158 9.9184 15.562 10.2275C16.3081 10.5365 16.9458 11.0599 17.3945 11.7314C17.8432 12.4029 18.0827 13.1924 18.0827 14C18.0827 15.0829 17.6525 16.1215 16.8867 16.8873C16.1209 17.6531 15.0823 18.0833 13.9994 18.0833ZM13.9994 12.25C13.6532 12.25 13.3149 12.3526 13.0271 12.5449C12.7393 12.7372 12.515 13.0105 12.3826 13.3303C12.2501 13.65 12.2155 14.0019 12.283 14.3414C12.3505 14.6808 12.5172 14.9927 12.7619 15.2374C13.0067 15.4821 13.3185 15.6488 13.6579 15.7163C13.9974 15.7839 14.3493 15.7492 14.669 15.6168C14.9888 15.4843 15.2621 15.26 15.4544 14.9722C15.6467 14.6844 15.7494 14.3461 15.7494 14C15.7494 13.5358 15.565 13.0907 15.2368 12.7625C14.9086 12.4343 14.4635 12.25 13.9994 12.25Z" fill="white"/>
</svg>
