<svg width="28" height="28" viewBox="0 0 28 28" fill="none" xmlns="http://www.w3.org/2000/svg">
<path d="M12.5002 1.43347V12.7713H15.4998V1.43353L12.5002 1.43347ZM10.9407 3.9351C5.93031 5.28167 2.24219 9.85546 2.24219 15.2908C2.24219 21.7844 7.5063 27.0487 14 27.0487C20.4936 27.0487 25.7578 21.7844 25.7578 15.2908C25.7578 9.85546 22.0697 5.28167 17.0594 3.93515V6.69523C20.5922 7.95271 23.1215 11.3264 23.1215 15.2908C23.1215 20.3285 19.0376 24.4124 14 24.4124C8.96235 24.4124 4.87845 20.3284 4.87845 15.2908C4.87845 11.3263 7.40775 7.95266 10.9407 6.69512V3.9351Z" fill="white"/>
</svg>
