<svg width="28" height="28" viewBox="0 0 28 28" fill="none" xmlns="http://www.w3.org/2000/svg">
<g clip-path="url(#clip0_1054_3568)">
<path fill-rule="evenodd" clip-rule="evenodd" d="M22.9706 0.757989C22.928 0.586048 22.8404 0.428525 22.7169 0.301535C22.5934 0.174546 22.4383 0.0826484 22.2677 0.0352449C22.097 -0.0121586 21.9167 -0.0133666 21.7454 0.0317445C21.5741 0.0768556 21.4179 0.166666 21.2926 0.291989L17.2926 4.29199C17.1707 4.41424 17.0824 4.56599 17.0365 4.73247C16.9906 4.89896 16.9886 5.07449 17.0306 5.24199L17.7506 8.12999C17.7412 8.13919 17.7318 8.14853 17.7226 8.15799L12.9406 12.94C12.6757 13.2243 12.5314 13.6004 12.5383 13.989C12.5452 14.3776 12.7026 14.7484 12.9774 15.0232C13.2522 15.2981 13.623 15.4555 14.0116 15.4623C14.4002 15.4692 14.7763 15.3249 15.0606 15.06L19.8466 10.28C19.8561 10.2701 19.8654 10.2601 19.8746 10.25L22.7606 10.972C22.9281 11.0141 23.1037 11.0121 23.2702 10.9661C23.4366 10.9202 23.5884 10.832 23.7106 10.71L27.7106 6.70999C27.8365 6.58483 27.9268 6.42843 27.9722 6.25685C28.0176 6.08528 28.0165 5.9047 27.9691 5.73367C27.9216 5.56265 27.8295 5.40732 27.7022 5.28366C27.5749 5.15999 27.417 5.07244 27.2446 5.02999L23.8266 4.17799L22.9706 0.757989ZM14.6346 1.51799C14.6621 1.91473 14.5309 2.30614 14.2699 2.60618C14.0089 2.90621 13.6394 3.09031 13.2426 3.11799C11.153 3.2628 9.14893 4.00445 7.46845 5.25482C5.78797 6.50518 4.50177 8.21169 3.76267 10.1716C3.02358 12.1315 2.86266 14.2623 3.29904 16.311C3.73542 18.3596 4.75076 20.24 6.2244 21.7285C7.69804 23.2171 9.56805 24.2513 11.6122 24.7083C13.6564 25.1653 15.7887 25.0258 17.756 24.3065C19.7232 23.5871 21.4426 22.3182 22.7098 20.6504C23.977 18.9826 24.7388 16.986 24.9046 14.898C24.9362 14.5012 25.1241 14.1332 25.427 13.875C25.7298 13.6168 26.1229 13.4894 26.5196 13.521C26.9164 13.5525 27.2844 13.7404 27.5426 14.0433C27.8009 14.3462 27.9282 14.7392 27.8966 15.136C27.685 17.7964 26.7141 20.3402 25.0993 22.4651C23.4845 24.5899 21.2936 26.2066 18.787 27.123C16.2804 28.0394 13.5635 28.2169 10.9589 27.6346C8.3544 27.0523 5.97177 25.7345 4.09411 23.8379C2.21646 21.9413 0.922706 19.5456 0.366568 16.9353C-0.18957 14.3251 0.0152817 11.61 0.956786 9.11278C1.89829 6.61552 3.53687 4.44102 5.67785 2.84763C7.81883 1.25423 10.3722 0.308913 13.0346 0.123989C13.4314 0.0965114 13.8228 0.22771 14.1228 0.48874C14.4229 0.749769 14.607 1.12126 14.6346 1.51799ZM13.2906 8.11599C13.3625 8.29944 13.3975 8.49526 13.3937 8.69225C13.3899 8.88924 13.3473 9.08355 13.2684 9.26407C13.1894 9.4446 13.0757 9.60781 12.9337 9.74437C12.7917 9.88094 12.6241 9.98819 12.4406 10.06C11.7847 10.3173 11.2033 10.734 10.7488 11.2724C10.2944 11.8108 9.98127 12.454 9.8378 13.1438C9.69432 13.8336 9.72502 14.5483 9.92709 15.2233C10.1292 15.8982 10.4963 16.5122 10.9952 17.0097C11.4941 17.5072 12.1092 17.8725 12.7847 18.0726C13.4603 18.2727 14.1751 18.3013 14.8644 18.1558C15.5538 18.0103 16.1961 17.6953 16.7332 17.2393C17.2703 16.7833 17.6853 16.2006 17.9406 15.544C18.0121 15.3604 18.119 15.1927 18.2552 15.0504C18.3915 14.9081 18.5544 14.7941 18.7348 14.7148C18.9151 14.6355 19.1093 14.5925 19.3062 14.5882C19.5032 14.584 19.6991 14.6185 19.8826 14.69C20.0662 14.7614 20.234 14.8683 20.3762 15.0046C20.5185 15.1408 20.6325 15.3038 20.7118 15.4841C20.7911 15.6645 20.8342 15.8586 20.8384 16.0556C20.8427 16.2525 20.8081 16.4484 20.7366 16.632C20.3004 17.7534 19.5917 18.7483 18.6743 19.527C17.757 20.3056 16.6601 20.8433 15.4828 21.0916C14.3055 21.3398 13.0848 21.2907 11.9313 20.9487C10.7777 20.6067 9.72751 19.9826 8.87571 19.1328C8.02391 18.283 7.39734 17.2343 7.05263 16.0815C6.70792 14.9287 6.65595 13.7082 6.90142 12.5303C7.14689 11.3524 7.68205 10.2542 8.45852 9.33507C9.235 8.41594 10.2283 7.70481 11.3486 7.26599C11.7189 7.12146 12.1314 7.1298 12.4955 7.28918C12.8596 7.44855 13.1456 7.74592 13.2906 8.11599Z" fill="white"/>
</g>
<defs>
<clipPath id="clip0_1054_3568">
<rect width="28" height="28" fill="white"/>
</clipPath>
</defs>
</svg>
