<svg width="{48}" height="{48}" viewBox="0 0 48 48" fill="none" xmlns="http://www.w3.org/2000/svg" className="flex-grow-0 flex-shrink-0 w-12 h-12 relative" preserveAspectRatio="none"><path d="M33 22C36.3137 22 39 19.3137 39 16C39 12.6863 36.3137 10 33 10C29.6863 10 27 12.6863 27 16C27 19.3137 29.6863 22 33 22Z" fill="#37474F"/><path d="M15 22C18.3137 22 21 19.3137 21 16C21 12.6863 18.3137 10 15 10C11.6863 10 9 12.6863 9 16C9 19.3137 11.6863 22 15 22Z" fill="#37474F"/><path d="M46.7 25L31.4 28H16.7L1.40002 25L5.70002 17.1C6.80002 15.2 8.80002 14 11 14H37.2C39.4 14 41.4 15.2 42.5 17.1L46.7 25Z" fill="#37474F"/><path d="M38 40C43.5228 40 48 35.5228 48 30C48 24.4772 43.5228 20 38 20C32.4772 20 28 24.4772 28 30C28 35.5228 32.4772 40 38 40Z" fill="#37474F"/><path d="M10 40C15.5228 40 20 35.5228 20 30C20 24.4772 15.5228 20 10 20C4.47715 20 0 24.4772 0 30C0 35.5228 4.47715 40 10 40Z" fill="#37474F"/><path d="M24 33C26.7614 33 29 30.7614 29 28C29 25.2386 26.7614 23 24 23C21.2386 23 19 25.2386 19 28C19 30.7614 21.2386 33 24 33Z" fill="#37474F"/><path d="M24 30C25.1046 30 26 29.1046 26 28C26 26.8954 25.1046 26 24 26C22.8954 26 22 26.8954 22 28C22 29.1046 22.8954 30 24 30Z" fill="#546E7A"/><path d="M38 37C41.866 37 45 33.866 45 30C45 26.134 41.866 23 38 23C34.134 23 31 26.134 31 30C31 33.866 34.134 37 38 37Z" fill="#AA00FF"/><path d="M10 37C13.866 37 17 33.866 17 30C17 26.134 13.866 23 10 23C6.13401 23 3 26.134 3 30C3 33.866 6.13401 37 10 37Z" fill="#AA00FF"/><path d="M41.7 27.7C40.7 26.6 39.4 26 38 26C36.6 26 35.2 26.6 34.3 27.7C33.9 28.1 34 28.7 34.4 29.1C34.8 29.5 35.4 29.4 35.8 29C37 27.7 39.1 27.7 40.3 29C40.5 29.2 40.8 29.3 41 29.3C41.2 29.3 41.5 29.2 41.7 29C42.1 28.7 42.1 28.1 41.7 27.7ZM9.99999 26C8.59999 26 7.19999 26.6 6.29999 27.7C5.89999 28.1 5.99999 28.7 6.39999 29.1C6.79999 29.5 7.39999 29.4 7.79999 29C8.99999 27.7 11.1 27.7 12.3 29C12.5 29.2 12.8 29.3 13 29.3C13.2 29.3 13.5 29.2 13.7 29C14.1 28.6 14.1 28 13.8 27.6C12.8 26.6 11.4 26 9.99999 26Z" fill="#CE93D8"/></svg>