<svg width="{25}" height="{24}" viewBox="0 0 25 24" fill="none" xmlns="http://www.w3.org/2000/svg" className="w-6 h-6 absolute bottom-0 right-0" preserveAspectRatio="none"><circle cx="12.5" cy="{12}" r="{12}" fill="#169A01"/><path d="M17.3519 7.45972L10.1519 14.7116L7.42884 11.9886L6.40192 13.0155L9.63269 16.2463C9.77692 16.3905 9.97307 16.5059 10.1461 16.5059C10.3192 16.5059 10.5096 16.3905 10.6538 16.252L18.3673 8.49818L17.3519 7.45972Z" fill="#FDFDFD"/><path d="M12.5 0C5.87115 0 0.5 5.37115 0.5 12C0.5 18.6288 5.87115 24 12.5 24C19.1288 24 24.5 18.6288 24.5 12C24.5 5.37115 19.1288 0 12.5 0ZM12.5 23.0019C6.43654 23.0019 1.49808 18.0692 1.49808 12C1.49808 5.93654 6.43077 0.998077 12.5 0.998077C18.5635 0.998077 23.5019 5.93077 23.5019 12C23.5019 18.0635 18.5635 23.0019 12.5 23.0019Z" fill="#FDFDFD"/></svg>