<svg
                        width={174}
                        height={174}
                        viewBox="0 0 174 174"
                        fill="none"
                        xmlns="http://www.w3.org/2000/svg"
                        className="w-[173.86px] h-[174px]"
                        preserveAspectRatio="none"
                    >
                        <path
                            fill-rule="evenodd"
                            clip-rule="evenodd"
                            d="M86.9289 170.093C132.783 170.093 169.956 132.891 169.956 86.9989C169.956 41.1072 132.783 3.90479 86.9289 3.90479C41.0744 3.90479 3.9021 41.1072 3.9021 86.9989C3.9021 132.891 41.0744 170.093 86.9289 170.093Z"
                            fill="#FEFEFE"
                        />
                        <path
                            fill-rule="evenodd"
                            clip-rule="evenodd"
                            d="M119.892 10.728L125.226 38.2516L156.804 42.1471C147.935 28.3332 135.1 17.3212 119.892 10.728Z"
                            fill="#4C4C4C"
                        />
                        <path
                            fill-rule="evenodd"
                            clip-rule="evenodd"
                            d="M156.152 132.87C164.868 119.723 169.954 103.959 169.954 86.9994C169.954 85.2157 169.879 83.4528 169.77 81.6978L145.255 99.631L156.152 132.87Z"
                            fill="#4C4C4C"
                        />
                        <path
                            fill-rule="evenodd"
                            clip-rule="evenodd"
                            d="M116.912 164.482L87.5113 144.104L59.5234 165.435C68.1069 168.44 77.3225 170.091 86.9284 170.091C97.5049 170.091 107.608 168.091 116.912 164.482Z"
                            fill="#4C4C4C"
                        />
                        <path
                            opacity="0.3"
                            fill-rule="evenodd"
                            clip-rule="evenodd"
                            d="M133.567 18.0928C142.275 31.2374 147.359 46.9938 147.359 63.948C147.359 109.84 110.187 147.042 64.3324 147.042C47.3945 147.042 31.6483 141.954 18.5168 133.236C33.3837 155.674 58.8347 170.478 87.7488 170.478C133.603 170.478 170.776 133.275 170.776 87.3834C170.776 58.4433 155.987 32.9716 133.567 18.0928Z"
                            fill="#010202"
                        />
                        <mask
                            id="mask0_224_1234"
                            style={{ maskType: "luminance" }}
                            maskUnits="userSpaceOnUse"
                            x={0}
                            y={0}
                            width={174}
                            height={174}
                        >
                            <path d="M0.000732422 173.999H173.857V0H0.000732422V173.999Z" fill="#2E2E30" />
                        </mask>
                        <g mask="url(#mask0_224_1234)">
                            <path
                                fill-rule="evenodd"
                                clip-rule="evenodd"
                                d="M86.9303 7.8118C43.3003 7.8118 7.8062 43.3346 7.8062 87C7.8062 130.663 43.3003 166.188 86.9303 166.188C130.56 166.188 166.052 130.663 166.052 87C166.052 43.3346 130.56 7.8118 86.9303 7.8118ZM86.9303 174C38.9969 174 0.000732422 134.97 0.000732422 87C0.000732422 39.0277 38.9969 0 86.9303 0C134.864 0 173.857 39.0277 173.857 87C173.857 134.97 134.864 174 86.9303 174Z"
                                fill="#2E2E30"
                            />
                        </g>
                        <path
                            fill-rule="evenodd"
                            clip-rule="evenodd"
                            d="M86.9291 117.859L54.5078 94.2851L66.8925 56.1401H106.966L119.35 94.2851L86.9291 117.859Z"
                            fill="#4C4C4C"
                        />
                        <path
                            fill-rule="evenodd"
                            clip-rule="evenodd"
                            d="M59.0976 92.7911L86.9293 113.029L114.764 92.7911L104.133 60.0467H69.7261L59.0976 92.7911ZM86.9293 121.765C86.1254 121.765 85.3188 121.515 84.6345 121.02L52.2132 97.4443C50.8472 96.4496 50.2748 94.6868 50.7978 93.0749L63.1773 54.9325C63.7028 53.3233 65.2015 52.2349 66.8901 52.2349H106.966C108.657 52.2349 110.156 53.3233 110.679 54.9325L123.063 93.0749C123.584 94.6868 123.011 96.447 121.645 97.4443L89.2241 121.02C88.5398 121.515 87.7359 121.765 86.9293 121.765Z"
                            fill="#2E2E30"
                        />
                        <path
                            fill-rule="evenodd"
                            clip-rule="evenodd"
                            d="M58.7926 8.80762C42.323 14.7446 28.2784 25.7436 18.5164 39.9298L52.301 36.9665L58.7926 8.80762Z"
                            fill="#4C4C4C"
                        />
                        <path
                            fill-rule="evenodd"
                            clip-rule="evenodd"
                            d="M53.284 15.3244C43.3086 20.0427 34.3115 26.8858 27.0576 35.2601L49.1341 33.3254L53.284 15.3244ZM18.5159 43.8374C17.1343 43.8374 15.8438 43.1031 15.1439 41.8975C14.3816 40.5903 14.444 38.9603 15.3 37.7156C25.7099 22.5945 40.2931 11.3273 57.4678 5.13518C58.8103 4.64825 60.3142 4.93728 61.3835 5.88772C62.4503 6.83815 62.916 8.29375 62.596 9.68686L56.1044 37.8458C55.7219 39.4941 54.3248 40.7101 52.6414 40.8585L18.8567 43.8218C18.7422 43.8322 18.6277 43.8374 18.5159 43.8374Z"
                            fill="#2E2E30"
                        />
                        <path
                            fill-rule="evenodd"
                            clip-rule="evenodd"
                            d="M128.516 34.7239L148.412 37.1768C141.993 29.2322 134.138 22.6339 125.217 17.6968L128.516 34.7239ZM156.805 46.0562C156.649 46.0562 156.488 46.0458 156.327 46.025L124.748 42.1295C123.07 41.9238 121.717 40.6583 121.395 38.997L116.061 11.4734C115.785 10.049 116.321 8.59084 117.448 7.68468C118.579 6.77851 120.115 6.56759 121.444 7.14566C137.331 14.0331 150.694 25.407 160.089 40.0385C160.906 41.3119 160.914 42.9445 160.11 44.2283C159.389 45.374 158.138 46.0562 156.805 46.0562Z"
                            fill="#2E2E30"
                        />
                        <path
                            fill-rule="evenodd"
                            clip-rule="evenodd"
                            d="M67.9954 163.892C81.1815 167.146 95.2313 166.923 108.279 163.256L87.6184 148.932L67.9954 163.892ZM86.9289 174C77.1278 174 67.4725 172.36 58.236 169.125C56.8805 168.649 55.8944 167.469 55.6706 166.048C55.4442 164.628 56.0167 163.202 57.1589 162.329L85.1441 140.998C86.4892 139.969 88.3391 139.933 89.7311 140.894L119.134 161.275C120.321 162.1 120.956 163.511 120.786 164.946C120.617 166.381 119.668 167.607 118.323 168.128C108.279 172.024 97.7187 174 86.9289 174Z"
                            fill="#2E2E30"
                        />
                        <path
                            fill-rule="evenodd"
                            clip-rule="evenodd"
                            d="M28.6027 99.631L4.08829 81.6978C3.97642 83.4528 3.90356 85.2157 3.90356 86.9994C3.90356 103.959 8.99013 119.723 17.7062 132.87L28.6027 99.631Z"
                            fill="#4C4C4C"
                        />
                        <mask
                            id="mask1_224_1234"
                            style={{ maskType: "luminance" }}
                            maskUnits="userSpaceOnUse"
                            x={0}
                            y={77}
                            width={33}
                            height={60}
                        >
                            <path d="M0 77.793V136.776H32.5044V77.793H0H0Z" fill="#2E2E30" />
                        </mask>
                        <g mask="url(#mask1_224_1234)">
                            <path
                                fill-rule="evenodd"
                                clip-rule="evenodd"
                                d="M7.83856 89.2805C8.1794 101.269 11.2027 112.909 16.6848 123.46L24.0115 101.113L7.83856 89.2805ZM17.7073 136.776C16.4116 136.776 15.1835 136.13 14.455 135.029C4.99737 120.77 -0.000732422 104.162 -0.000732422 86.9994C-0.000732422 85.135 0.0799241 83.2914 0.194404 81.4582C0.282866 80.0339 1.14147 78.771 2.43197 78.1643C3.71467 77.5576 5.23934 77.7008 6.38935 78.547L30.9037 96.4803C32.2723 97.4776 32.8369 99.2431 32.3087 100.85L21.4149 134.089C20.9492 135.511 19.7107 136.539 18.2302 136.742C18.0559 136.763 17.879 136.776 17.7073 136.776Z"
                                fill="#2E2E30"
                            />
                        </g>
                        <path
                            fill-rule="evenodd"
                            clip-rule="evenodd"
                            d="M66.8913 56.1432L53.1355 38.1006Z"
                            fill="#FEFEFE"
                        />
                        <path
                            fill-rule="evenodd"
                            clip-rule="evenodd"
                            d="M66.893 60.0491C65.7169 60.0491 64.5565 59.5205 63.789 58.5128L50.0357 40.4701C48.727 38.7541 49.0575 36.3038 50.7695 34.9967C52.4893 33.6869 54.9324 34.0176 56.2385 35.7336L69.9917 53.7736C71.3005 55.4896 70.97 57.9399 69.258 59.2471C68.5503 59.7887 67.7177 60.0491 66.893 60.0491Z"
                            fill="#2E2E30"
                        />
                        <path
                            fill-rule="evenodd"
                            clip-rule="evenodd"
                            d="M106.966 56.1408L125.226 38.2544Z"
                            fill="#FEFEFE"
                        />
                        <path
                            fill-rule="evenodd"
                            clip-rule="evenodd"
                            d="M106.967 60.0493C105.952 60.0493 104.943 59.6587 104.178 58.875C102.671 57.336 102.695 54.8623 104.238 53.352L122.497 35.4656C124.032 33.9553 126.507 33.9814 128.016 35.5229C129.522 37.0644 129.496 39.5382 127.953 41.0458L109.696 58.9349C108.939 59.677 107.953 60.0493 106.967 60.0493Z"
                            fill="#2E2E30"
                        />
                        <path
                            fill-rule="evenodd"
                            clip-rule="evenodd"
                            d="M54.5075 94.2832L28.6038 99.6291Z"
                            fill="#FEFEFE"
                        />
                        <path
                            fill-rule="evenodd"
                            clip-rule="evenodd"
                            d="M28.5973 103.538C26.7864 103.538 25.1603 102.268 24.7804 100.421C24.3433 98.307 25.7041 96.242 27.8142 95.8072L53.7205 90.4613C55.8124 90.0186 57.8964 91.3831 58.3309 93.4975C58.768 95.6093 57.4073 97.6742 55.2972 98.1091L29.3909 103.458C29.1255 103.512 28.8601 103.538 28.5973 103.538Z"
                            fill="#2E2E30"
                        />
                        <path
                            fill-rule="evenodd"
                            clip-rule="evenodd"
                            d="M149.846 101.112L157.173 123.459C162.655 112.91 165.678 101.271 166.019 89.2824L149.846 101.112ZM156.153 136.778C155.979 136.778 155.805 136.765 155.63 136.744C154.147 136.541 152.911 135.513 152.446 134.091L141.549 100.852C141.018 99.245 141.586 97.4796 142.954 96.4823L167.466 78.549C168.619 77.7053 170.141 77.5647 171.423 78.1636C172.714 78.7703 173.572 80.0306 173.663 81.455C173.794 83.4938 173.859 85.3114 173.859 87.0013C173.859 104.161 168.86 120.769 159.405 135.031C158.677 136.132 157.449 136.778 156.153 136.778Z"
                            fill="#2E2E30"
                        />
                        <path
                            fill-rule="evenodd"
                            clip-rule="evenodd"
                            d="M119.35 94.2832L145.254 99.6291Z"
                            fill="#FEFEFE"
                        />
                        <path
                            fill-rule="evenodd"
                            clip-rule="evenodd"
                            d="M145.26 103.538C144.997 103.538 144.732 103.511 144.466 103.457L118.563 98.1083C116.453 97.6735 115.092 95.6085 115.529 93.4967C115.963 91.3823 118.045 90.0205 120.139 90.4606L146.043 95.8064C148.153 96.2413 149.514 98.3062 149.077 100.421C148.697 102.267 147.071 103.538 145.26 103.538Z"
                            fill="#2E2E30"
                        />
                        <path
                            fill-rule="evenodd"
                            clip-rule="evenodd"
                            d="M86.9298 148.008C84.7755 148.008 83.0271 146.258 83.0271 144.102V117.857C83.0271 115.701 84.7755 113.951 86.9298 113.951C89.0841 113.951 90.8326 115.701 90.8326 117.857V144.102C90.8326 146.258 89.0841 148.008 86.9298 148.008Z"
                            fill="#2E2E30"
                        />
                    </svg>