<svg width="{20}" height="{19}" viewBox="0 0 20 19" fill="none" xmlns="http://www.w3.org/2000/svg" className="w-[19px] h-[19px] relative" preserveAspectRatio="none"><path d="M9.66904 1.58203C7.49154 1.58203 5.70996 3.36361 5.70996 5.54111V7.12474H7.29359V5.54111C7.29359 4.23461 8.36254 3.16566 9.66904 3.16566C10.9755 3.16566 12.0445 4.23461 12.0445 5.54111H13.6281C13.6281 3.36361 11.8465 1.58203 9.66904 1.58203Z" fill="#946108"/><path d="M14.4199 17.4184H4.91816C4.04717 17.4184 3.33453 16.7057 3.33453 15.8347V8.70839C3.33453 7.83739 4.04717 7.12476 4.91816 7.12476H14.4199C15.2909 7.12476 16.0036 7.83739 16.0036 8.70839V15.8347C16.0036 16.7057 15.2909 17.4184 14.4199 17.4184Z" fill="#946108"/><path d="M9.66905 13.4592C10.325 13.4592 10.8568 12.9274 10.8568 12.2715C10.8568 11.6155 10.325 11.0837 9.66905 11.0837C9.01308 11.0837 8.48132 11.6155 8.48132 12.2715C8.48132 12.9274 9.01308 13.4592 9.66905 13.4592Z" fill="#946108"/></svg>