<svg width="{150}" height="{28}" viewBox="0 0 150 28" fill="none" xmlns="http://www.w3.org/2000/svg" className="w-[150px] h-[27.5px] relative" preserveAspectRatio="none"><g clip-path="url(#clip0_88_261)"><path d="M36.7796 21.281V18.8788C36.7789 18.865 36.7813 18.8512 36.7864 18.8383C36.7916 18.8255 36.7995 18.8139 36.8095 18.8044C36.8196 18.7948 36.8316 18.7876 36.8447 18.7831C36.8578 18.7787 36.8718 18.7771 36.8856 18.7785H46.1835C46.2523 18.7791 46.3206 18.766 46.3844 18.74C46.4481 18.714 46.506 18.6755 46.5547 18.6269C46.6034 18.5782 46.6419 18.5204 46.6679 18.4567C46.694 18.393 46.7071 18.3248 46.7064 18.256V15.6435C46.7071 15.5747 46.694 15.5064 46.6679 15.4428C46.6419 15.3791 46.6034 15.3212 46.5547 15.2726C46.506 15.2239 46.4481 15.1855 46.3844 15.1594C46.3206 15.1334 46.2523 15.1203 46.1835 15.121H39.2016C38.9928 15.1109 38.7938 15.0299 38.6374 14.8913L36.4865 12.7601C36.3478 12.6038 36.2667 12.4049 36.2567 12.1963V9.17134C36.267 8.96303 36.3475 8.76434 36.4865 8.60759L38.6374 6.47634C38.7943 6.33884 38.9931 6.25703 39.2016 6.2474H48.6929C48.7069 6.24682 48.7208 6.24914 48.7339 6.25422C48.7469 6.2593 48.7587 6.26703 48.7686 6.27692C48.7785 6.2868 48.7863 6.29863 48.7913 6.31166C48.7964 6.32468 48.7987 6.33862 48.7982 6.35259V8.75471C48.7988 8.76849 48.7965 8.78224 48.7914 8.79503C48.7863 8.80783 48.7784 8.81938 48.7684 8.8289C48.7585 8.83842 48.7466 8.84568 48.7335 8.8502C48.7205 8.85472 48.7066 8.85639 48.6929 8.85509H39.3901C39.3216 8.855 39.2538 8.86848 39.1905 8.89475C39.1273 8.92103 39.0699 8.95958 39.0216 9.00817C38.9734 9.05676 38.9352 9.11443 38.9094 9.17784C38.8836 9.24125 38.8707 9.30914 38.8713 9.37759V11.9901C38.8701 12.0587 38.8827 12.1268 38.9083 12.1905C38.9339 12.2542 38.972 12.312 39.0204 12.3608C39.0687 12.4095 39.1264 12.448 39.1899 12.4741C39.2534 12.5001 39.3215 12.5132 39.3901 12.5126H46.3713C46.5805 12.5229 46.7794 12.6033 46.9355 12.7422L49.092 14.8913C49.2296 15.0481 49.3115 15.2468 49.3211 15.4551V18.4437C49.3112 18.6522 49.2304 18.851 49.092 19.0074L46.9355 21.1572C46.779 21.2955 46.58 21.3762 46.3713 21.3862H36.8856C36.8715 21.3868 36.8575 21.3846 36.8444 21.3795C36.8313 21.3745 36.8193 21.3668 36.8094 21.3569C36.7994 21.347 36.7916 21.3351 36.7865 21.3221C36.7813 21.309 36.779 21.295 36.7796 21.281ZM53.7888 21.1572L51.6378 19.0074C51.4992 18.8511 51.4181 18.6522 51.408 18.4437V9.1899C51.4183 8.98159 51.4989 8.78221 51.6378 8.62615L53.7888 6.47634C53.9456 6.33884 54.1445 6.25703 54.353 6.2474H61.5089C61.7181 6.25703 61.917 6.33815 62.0732 6.47634L64.2248 8.62615C64.3631 8.78221 64.4443 8.98159 64.4539 9.1899V18.4437C64.444 18.6522 64.3632 18.851 64.2248 19.0074L62.0732 21.1572C61.9167 21.2955 61.7176 21.3763 61.5089 21.3862H54.353C54.1443 21.3763 53.9452 21.2955 53.7888 21.1572ZM54.5415 18.7785H61.3349C61.4037 18.7791 61.472 18.766 61.5357 18.74C61.5995 18.714 61.6574 18.6755 61.7061 18.6269C61.7548 18.5782 61.7933 18.5204 61.8193 18.4567C61.8454 18.393 61.8584 18.3248 61.8578 18.256V9.37759C61.8584 9.30879 61.8454 9.24056 61.8193 9.17688C61.7933 9.1132 61.7548 9.05534 61.7061 9.00669C61.6574 8.95805 61.5995 8.91958 61.5357 8.89355C61.472 8.86752 61.4037 8.85445 61.3349 8.85509H54.5415C54.4727 8.85445 54.4044 8.86752 54.3406 8.89355C54.2769 8.91958 54.219 8.95805 54.1703 9.00669C54.1216 9.05534 54.0831 9.1132 54.0571 9.17688C54.031 9.24056 54.0179 9.30879 54.0186 9.37759V18.256C54.0179 18.3248 54.031 18.393 54.0571 18.4567C54.0831 18.5204 54.1216 18.5782 54.1703 18.6269C54.219 18.6755 54.2769 18.714 54.3406 18.74C54.4044 18.766 54.4727 18.7791 54.5415 18.7785ZM68.9401 21.1572L66.7892 19.0074C66.6506 18.8511 66.5695 18.6522 66.5594 18.4437V9.17134C66.5676 8.96234 66.649 8.76285 66.7892 8.60759L68.9401 6.47634C69.097 6.33884 69.2959 6.25703 69.5044 6.2474H79.5138C79.5277 6.24682 79.5417 6.24914 79.5547 6.25422C79.5678 6.2593 79.5796 6.26703 79.5895 6.27692C79.5994 6.2868 79.6071 6.29863 79.6122 6.31166C79.6173 6.32468 79.6196 6.33862 79.619 6.35259V8.75471C79.6197 8.76849 79.6174 8.78224 79.6122 8.79503C79.6071 8.80783 79.5993 8.81938 79.5893 8.8289C79.5793 8.83842 79.5674 8.84568 79.5544 8.8502C79.5414 8.85472 79.5275 8.85639 79.5138 8.85509H69.6929C69.624 8.85445 69.5557 8.86752 69.492 8.89355C69.4283 8.91958 69.3704 8.95805 69.3217 9.00669C69.273 9.05534 69.2345 9.1132 69.2085 9.17688C69.1824 9.24056 69.1693 9.30879 69.17 9.37759V18.256C69.1693 18.3248 69.1824 18.393 69.2085 18.4567C69.2345 18.5204 69.273 18.5782 69.3217 18.6269C69.3704 18.6755 69.4283 18.714 69.492 18.74C69.5557 18.766 69.624 18.7791 69.6929 18.7785H79.5138C79.5275 18.7772 79.5414 18.7788 79.5544 18.7834C79.5674 18.7879 79.5793 18.7951 79.5893 18.8047C79.5993 18.8142 79.6071 18.8257 79.6122 18.8385C79.6174 18.8513 79.6197 18.8651 79.619 18.8788V21.281C79.6196 21.2949 79.6173 21.3089 79.6122 21.3219C79.6071 21.3349 79.5994 21.3468 79.5895 21.3566C79.5796 21.3665 79.5678 21.3743 79.5547 21.3793C79.5417 21.3844 79.5277 21.3867 79.5138 21.3862H69.5044C69.2957 21.3762 69.0967 21.2955 68.9401 21.1572ZM83.5686 21.1572L81.4177 19.0074C81.279 18.8511 81.1979 18.6522 81.1878 18.4437V9.17134C81.1961 8.96234 81.2774 8.76285 81.4177 8.60759L83.5686 6.47634C83.7255 6.33884 83.9243 6.25703 84.1328 6.2474H94.1422C94.1562 6.24682 94.1701 6.24914 94.1832 6.25422C94.1962 6.2593 94.208 6.26703 94.2179 6.27692C94.2278 6.2868 94.2356 6.29863 94.2406 6.31166C94.2457 6.32468 94.2481 6.33862 94.2475 6.35259V8.75471C94.2481 8.76849 94.2458 8.78224 94.2407 8.79503C94.2356 8.80783 94.2277 8.81938 94.2178 8.8289C94.2078 8.83842 94.1959 8.84568 94.1828 8.8502C94.1698 8.85472 94.1559 8.85639 94.1422 8.85509H84.3213C84.2525 8.85445 84.1842 8.86752 84.1205 8.89355C84.0567 8.91958 83.9988 8.95805 83.9501 9.00669C83.9014 9.05534 83.8629 9.1132 83.8369 9.17688C83.8108 9.24056 83.7978 9.30879 83.7984 9.37759V18.256C83.7978 18.3248 83.8108 18.393 83.8369 18.4567C83.8629 18.5204 83.9014 18.5782 83.9501 18.6269C83.9988 18.6755 84.0567 18.714 84.1205 18.74C84.1842 18.766 84.2525 18.7791 84.3213 18.7785H94.1422C94.1559 18.7772 94.1698 18.7788 94.1828 18.7834C94.1959 18.7879 94.2078 18.7951 94.2178 18.8047C94.2277 18.8142 94.2356 18.8257 94.2407 18.8385C94.2458 18.8513 94.2481 18.8651 94.2475 18.8788V21.281C94.2481 21.2949 94.2457 21.3089 94.2406 21.3219C94.2356 21.3349 94.2278 21.3468 94.2179 21.3566C94.208 21.3665 94.1962 21.3743 94.1832 21.3793C94.1701 21.3844 94.1562 21.3867 94.1422 21.3862H84.1328C83.9241 21.3762 83.7251 21.2955 83.5686 21.1572ZM98.2067 21.1572L96.055 19.0074C95.9149 18.8517 95.8323 18.6528 95.8211 18.4437V9.1899C95.8321 8.9809 95.9147 8.78153 96.055 8.62615L98.2067 6.47634C98.3629 6.33884 98.5617 6.25703 98.7709 6.2474H108.757C108.771 6.24682 108.785 6.24914 108.798 6.25422C108.811 6.2593 108.823 6.26703 108.833 6.27692C108.843 6.2868 108.85 6.29863 108.855 6.31166C108.86 6.32468 108.863 6.33862 108.862 6.35259V8.75471C108.863 8.76849 108.86 8.78224 108.855 8.79503C108.85 8.80783 108.842 8.81938 108.832 8.8289C108.822 8.83842 108.811 8.84568 108.798 8.8502C108.784 8.85472 108.771 8.85639 108.757 8.85509H98.9498C98.8809 8.85445 98.8126 8.86752 98.7489 8.89355C98.6852 8.91958 98.6273 8.95805 98.5786 9.00669C98.5299 9.05534 98.4914 9.1132 98.4653 9.17688C98.4393 9.24056 98.4262 9.30879 98.4268 9.37759V11.9901C98.4262 12.0589 98.4393 12.1271 98.4653 12.1908C98.4914 12.2545 98.5299 12.3123 98.5786 12.361C98.6273 12.4096 98.6852 12.4481 98.7489 12.4741C98.8126 12.5002 98.8809 12.5132 98.9498 12.5126H106.684C106.698 12.512 106.712 12.5143 106.725 12.5195C106.738 12.5246 106.75 12.5324 106.76 12.5423C106.77 12.5523 106.777 12.5642 106.782 12.5773C106.787 12.5904 106.79 12.6044 106.789 12.6185V15.0199C106.789 15.0335 106.786 15.047 106.781 15.0596C106.776 15.0721 106.768 15.0834 106.758 15.0929C106.748 15.1023 106.736 15.1097 106.724 15.1145C106.711 15.1193 106.697 15.1215 106.684 15.121H98.9498C98.8809 15.1203 98.8126 15.1334 98.7489 15.1594C98.6852 15.1855 98.6273 15.2239 98.5786 15.2726C98.5299 15.3212 98.4914 15.3791 98.4653 15.4428C98.4393 15.5064 98.4262 15.5747 98.4268 15.6435V18.256C98.4262 18.3248 98.4393 18.393 98.4653 18.4567C98.4914 18.5204 98.5299 18.5782 98.5786 18.6269C98.6273 18.6755 98.6852 18.714 98.7489 18.74C98.8126 18.766 98.8809 18.7791 98.9498 18.7785H108.757C108.771 18.7772 108.784 18.7788 108.798 18.7834C108.811 18.7879 108.822 18.7951 108.832 18.8047C108.842 18.8142 108.85 18.8257 108.855 18.8385C108.86 18.8513 108.863 18.8651 108.862 18.8788V21.281C108.863 21.2949 108.86 21.3089 108.855 21.3219C108.85 21.3349 108.843 21.3468 108.833 21.3566C108.823 21.3665 108.811 21.3743 108.798 21.3793C108.785 21.3844 108.771 21.3867 108.757 21.3862H98.7612C98.5559 21.3741 98.3606 21.2935 98.2067 21.1572ZM110.441 21.281V6.35259C110.44 6.33862 110.442 6.32468 110.447 6.31166C110.453 6.29863 110.46 6.2868 110.47 6.27692C110.48 6.26703 110.492 6.2593 110.505 6.25422C110.518 6.24914 110.532 6.24682 110.546 6.2474H120.559C120.769 6.25703 120.967 6.33815 121.124 6.47634L123.275 8.62615C123.414 8.78221 123.495 8.98159 123.504 9.1899V12.1963C123.494 12.4048 123.414 12.6037 123.275 12.7601L121.142 14.8913C120.986 15.0299 120.787 15.1109 120.578 15.121H119.386C119.303 15.121 119.28 15.1622 119.321 15.2488L123.436 21.2535C123.477 21.336 123.436 21.3772 123.372 21.3772H120.55C120.513 21.3776 120.475 21.368 120.442 21.3494C120.409 21.3308 120.382 21.3039 120.363 21.2713L116.331 15.3822C116.267 15.3034 116.187 15.2387 116.097 15.1921C116.007 15.1455 115.909 15.118 115.808 15.1113H113.592C113.523 15.1107 113.455 15.1238 113.391 15.1498C113.327 15.1758 113.269 15.2143 113.221 15.2629C113.172 15.3116 113.134 15.3694 113.108 15.4331C113.081 15.4968 113.068 15.565 113.069 15.6338V21.2713C113.07 21.2854 113.067 21.2995 113.062 21.3127C113.057 21.3258 113.05 21.3378 113.04 21.3477C113.03 21.3577 113.018 21.3655 113.004 21.3706C112.991 21.3756 112.977 21.3779 112.963 21.3772H110.546C110.519 21.3783 110.493 21.3688 110.473 21.3508C110.454 21.3328 110.442 21.3077 110.441 21.281ZM113.578 12.5126H120.372C120.44 12.5132 120.509 12.5002 120.572 12.4741C120.636 12.4481 120.694 12.4096 120.743 12.361C120.791 12.3123 120.83 12.2545 120.856 12.1908C120.882 12.1271 120.895 12.0589 120.894 11.9901V9.37759C120.894 9.23901 120.839 9.10611 120.741 9.00813C120.643 8.91014 120.51 8.85509 120.372 8.85509H113.578C113.509 8.85445 113.441 8.86752 113.377 8.89355C113.314 8.91958 113.256 8.95805 113.207 9.00669C113.158 9.05534 113.12 9.1132 113.094 9.17688C113.068 9.24056 113.055 9.30879 113.055 9.37759V11.9901C113.055 12.0589 113.068 12.1271 113.094 12.1908C113.12 12.2545 113.158 12.3123 113.207 12.361C113.256 12.4096 113.314 12.4481 113.377 12.4741C113.441 12.5002 113.509 12.5132 113.578 12.5126Z" fill="white"/><path d="M125.592 21.281V16.9814C125.603 16.7772 125.702 16.5867 125.862 16.4589L133.825 11.3212C133.862 11.2944 133.893 11.2602 133.915 11.2207C133.937 11.1812 133.95 11.1374 133.954 11.0922V9.37761C133.954 9.23903 133.899 9.10613 133.801 9.00815C133.703 8.91016 133.57 8.85511 133.431 8.85511H125.697C125.684 8.85641 125.67 8.85474 125.657 8.85022C125.644 8.8457 125.632 8.83844 125.622 8.82892C125.612 8.8194 125.604 8.80785 125.599 8.79505C125.594 8.78226 125.591 8.76851 125.592 8.75473V6.35261C125.591 6.33864 125.594 6.3247 125.599 6.31168C125.604 6.29865 125.612 6.28682 125.622 6.27693C125.631 6.26705 125.643 6.25932 125.656 6.25424C125.669 6.24916 125.683 6.24684 125.697 6.24742H133.619C133.828 6.25705 134.027 6.33817 134.183 6.47636L136.335 8.62617C136.473 8.78223 136.554 8.98161 136.564 9.18992V12.1551C136.553 12.36 136.454 12.5504 136.294 12.6776L128.331 17.8387C128.295 17.8657 128.265 17.9001 128.243 17.9396C128.222 17.9791 128.21 18.0228 128.207 18.0676V18.6726C128.206 18.6862 128.208 18.6998 128.213 18.7126C128.218 18.7254 128.225 18.7371 128.234 18.747C128.244 18.7568 128.255 18.7647 128.267 18.7702C128.28 18.7756 128.293 18.7784 128.307 18.7785H136.459C136.472 18.7772 136.486 18.7789 136.499 18.7834C136.512 18.7879 136.524 18.7952 136.534 18.8047C136.544 18.8142 136.552 18.8257 136.557 18.8385C136.562 18.8513 136.565 18.8651 136.564 18.8789V21.281C136.565 21.295 136.562 21.3089 136.557 21.3219C136.552 21.3349 136.544 21.3468 136.534 21.3567C136.525 21.3665 136.513 21.3743 136.5 21.3794C136.487 21.3844 136.473 21.3868 136.459 21.3862H125.697C125.683 21.3868 125.669 21.3844 125.656 21.3794C125.643 21.3743 125.631 21.3665 125.622 21.3567C125.612 21.3468 125.604 21.3349 125.599 21.3219C125.594 21.3089 125.591 21.295 125.592 21.281ZM145.968 21.281V17.0226C145.968 16.8349 145.863 16.7937 145.739 16.9174L145.009 17.651C144.96 17.7018 144.892 17.7314 144.821 17.7335H138.757C138.743 17.7341 138.729 17.7317 138.716 17.7266C138.703 17.7215 138.691 17.7137 138.681 17.7037C138.671 17.6938 138.663 17.6819 138.658 17.6688C138.653 17.6556 138.651 17.6416 138.652 17.6276V13.3472C138.668 13.0109 138.794 12.689 139.009 12.4301L144.903 6.31136C144.921 6.28427 144.946 6.26237 144.975 6.24788C145.004 6.23339 145.036 6.22682 145.069 6.22886H148.477C148.491 6.22827 148.505 6.23061 148.518 6.23573C148.532 6.24085 148.543 6.24864 148.553 6.2586C148.563 6.26857 148.571 6.28048 148.576 6.29359C148.581 6.3067 148.583 6.32071 148.583 6.33473V15.0199C148.582 15.0334 148.584 15.0468 148.589 15.0594C148.594 15.072 148.601 15.0834 148.611 15.0929C148.62 15.1024 148.632 15.1099 148.644 15.1147C148.657 15.1195 148.67 15.1217 148.684 15.121H149.523C149.537 15.1203 149.551 15.1226 149.564 15.1278C149.576 15.1329 149.588 15.1407 149.597 15.1507C149.607 15.1607 149.614 15.1726 149.619 15.1856C149.623 15.1986 149.625 15.2124 149.624 15.2262V17.6276C149.625 17.6414 149.623 17.6553 149.619 17.6684C149.614 17.6815 149.607 17.6935 149.598 17.7036C149.588 17.7136 149.577 17.7215 149.564 17.7267C149.551 17.7318 149.537 17.7341 149.523 17.7335H148.665C148.651 17.7327 148.637 17.735 148.625 17.74C148.612 17.7451 148.6 17.7529 148.59 17.7629C148.581 17.7729 148.574 17.7848 148.569 17.7979C148.564 17.811 148.563 17.8249 148.564 17.8387V21.281C148.565 21.295 148.562 21.3089 148.557 21.3219C148.552 21.3349 148.544 21.3468 148.534 21.3567C148.525 21.3665 148.513 21.3743 148.5 21.3794C148.487 21.3844 148.473 21.3868 148.459 21.3862H146.055C146.03 21.3828 146.007 21.3701 145.991 21.3506C145.975 21.3311 145.967 21.3063 145.968 21.281ZM141.381 15.121H145.872C145.885 15.1223 145.899 15.1206 145.912 15.116C145.925 15.1115 145.937 15.1042 145.947 15.0946C145.957 15.085 145.965 15.0733 145.97 15.0605C145.975 15.0476 145.978 15.0337 145.977 15.0199V9.18992C145.977 9.00223 145.872 8.96098 145.748 9.10742L141.504 13.5122C141.369 13.6794 141.289 13.8842 141.275 14.0987V15.0151C141.274 15.0285 141.275 15.0421 141.28 15.0549C141.284 15.0677 141.291 15.0795 141.3 15.0895C141.309 15.0995 141.32 15.1074 141.332 15.1129C141.345 15.1183 141.358 15.1211 141.372 15.121H141.381ZM23.8534 0.169922H3.6695L0 3.83636V24.0035L3.6695 27.6699H23.8534L27.5229 24.0035V3.83636L23.8534 0.169922Z" fill="#FF0046"/><path d="M21.0599 6.62768C19.3715 4.94057 17.1498 3.89059 14.7735 3.65665C12.3972 3.4227 10.0132 4.01926 8.02773 5.34468C6.04226 6.6701 4.57818 8.64238 3.88492 10.9255C3.19167 13.2085 3.31215 15.6612 4.22584 17.8654C5.13952 20.0697 6.78988 21.8893 8.89571 23.014C11.0015 24.1388 13.4325 24.4992 15.7745 24.0339C18.1165 23.5686 20.2245 22.3062 21.7395 20.462C23.2544 18.6178 24.0824 16.3058 24.0826 13.92C24.0864 12.5652 23.8212 11.223 23.3024 9.97127C22.7835 8.71954 22.0213 7.58307 21.0599 6.62768ZM21.4768 9.48769C22.1047 10.5792 22.4927 11.7918 22.6149 13.0448L20.7062 11.9723L21.4768 9.48769ZM20.0505 7.63143C20.1853 7.76893 20.3133 7.90643 20.4358 8.04393L19.3073 11.7386L17.9312 12.1511L14.4956 9.65269V8.25019L17.7661 5.95875C18.6122 6.39055 19.3835 6.9553 20.0505 7.63143ZM13.7615 5.02856C14.5659 5.02791 15.3667 5.13567 16.1422 5.34893L13.7615 7.01268L11.3759 5.34893C12.1531 5.13541 12.9555 5.02764 13.7615 5.02856ZM7.46766 7.63143C8.13821 6.95764 8.91276 6.3959 9.7617 5.96768L13.0321 8.25981V9.66231L9.59175 12.16L8.2156 11.7475L7.06445 8.05356L7.46766 7.63143ZM6.04129 9.48769L6.81193 11.9723L4.9039 13.0448C5.02592 11.7919 5.41366 10.5792 6.04129 9.48769ZM7.46766 20.2086C7.39055 20.1313 7.31575 20.0517 7.24335 19.97H9.33028L10.0094 21.9864C9.0645 21.5471 8.20418 20.9453 7.46766 20.2086ZM9.55046 18.5489H6.16033C5.44087 17.3765 5.0072 16.0516 4.89427 14.6811L7.74771 13.0764L9.21124 13.535L10.5323 17.5864L9.55046 18.5489ZM15.8119 22.5736C14.4618 22.8913 13.0563 22.8913 11.7062 22.5736L10.6603 19.4523L11.7936 18.32H15.7245L16.8578 19.4523L15.8119 22.5736ZM15.7431 16.945H11.775L10.5461 13.1686L13.7567 10.8352L16.9679 13.1686L15.7431 16.945ZM20.0505 20.2086C19.3142 20.9453 18.4541 21.547 17.5094 21.9864L18.1878 19.97H20.2755C20.2245 20.0525 20.1282 20.1302 20.0505 20.2086ZM17.9677 18.5489L17.014 17.5864L18.3303 13.535L19.7938 13.0764L22.6466 14.6811C22.5336 16.0516 22.1 17.3765 21.3805 18.5489H17.9677Z" fill="white"/></g><defs><clippath id="clip0_88_261"><rect width="{150}" height="27.5" fill="white" transform="translate(0 0.169922)"/></clippath></defs></svg>