<svg width="{48}" height="{48}" viewBox="0 0 48 48" fill="none" xmlns="http://www.w3.org/2000/svg" className="w-12 h-12" preserveAspectRatio="xMidYMid meet"><g clip-path="url(#clip0_92_88)"><path d="M24.6205 43.8747L4.13307 23.4182C-1.13811 18.1669 -1.13811 9.64175 4.13307 4.39042C9.40426 -0.870374 17.9367 -0.870374 23.2079 4.39042L43.6954 24.8375C48.9666 30.0983 48.9666 38.614 43.6954 43.8747C38.4242 49.1261 29.8917 49.1261 24.6205 43.8747Z" fill="#083162"/><path d="M3.55553 24.6858L23.3604 44.4516C17.8522 49.3528 9.39554 49.1731 4.11488 43.8934C-1.17526 38.6231 -1.36487 30.1831 3.55553 24.6858Z" fill="#F2A725"/><path d="M44.4455 23.4084L24.6406 3.63311C30.1488 -1.26814 38.6055 -1.08836 43.8861 4.19136C49.1763 9.47107 49.3659 17.911 44.4455 23.4084Z" fill="#F2A725"/></g><defs><clippath id="clip0_92_88"><rect width="{48}" height="{48}" fill="white"/></clippath></defs></svg>