<svg width="{103}" height="{34}" viewBox="0 0 103 34" fill="none" xmlns="http://www.w3.org/2000/svg" className="w-[103px] h-[33.15px] relative" preserveAspectRatio="none"><g clip-path="url(#clip0_88_252)"><path fill-rule="evenodd" clip-rule="evenodd" d="M21.6224 10.5083L17.527 13.6361C16.7755 11.7875 15.0031 10.8476 12.1978 10.8203C9.45681 10.7969 8.01397 11.4326 7.87732 12.7352C7.78488 13.6244 8.94237 14.2757 11.3498 14.693C14.9749 15.2897 17.1854 15.7616 17.9772 16.0969C20.3283 17.0368 21.3893 18.5734 21.1642 20.7106C20.9271 22.953 19.7254 24.7002 17.5552 25.9482C15.6099 27.0714 13.2467 27.6291 10.4696 27.6291C5.62665 27.6291 2.13813 26.4318 0 24.0333L4.36468 21.2605C5.46188 22.9023 7.53168 23.7212 10.5741 23.7212C11.7838 23.7212 12.8569 23.4756 13.7974 22.9804C14.6414 22.5085 15.0955 21.9898 15.1558 21.4164C15.2483 20.5545 14.1189 19.915 11.7718 19.5016C8.26717 18.8464 6.08885 18.355 5.24083 18.0158C2.94998 17.0485 1.91708 15.4886 2.14616 13.3241C2.37124 11.1869 3.5046 9.55675 5.54225 8.43747C7.39102 7.41959 9.79039 6.9126 12.7444 6.9126C16.7312 6.9126 19.6893 8.10988 21.6224 10.5083Z" fill="#3BB8FF"/><path fill-rule="evenodd" clip-rule="evenodd" d="M21.313 6.86206L20.2158 16.7913C20.1957 16.9511 20.1757 17.1111 20.1596 17.271L20.1274 17.5986L18.371 33.4947H24.054L24.8297 26.4748C26.381 27.247 28.2539 27.6292 30.4443 27.6292C33.9569 27.6292 36.8547 26.6386 39.1415 24.6613C41.3319 22.7582 42.5857 20.2934 42.8992 17.271C43.2168 14.2485 42.4773 11.7877 40.6888 9.88451C38.8159 7.90333 36.1272 6.91276 32.6105 6.91276C30.4604 6.91276 27.9123 7.38074 26.7588 8.94461L26.9959 6.86206H21.313ZM26.2283 18.2693L26.4493 16.1868C26.7307 15.013 27.2693 13.9911 28.069 13.1292C29.2024 11.9047 30.6371 11.2924 32.3735 11.2924C34.1137 11.2924 35.4238 11.9047 36.3121 13.1292C37.1239 14.2485 37.4454 15.6291 37.2806 17.271C37.1158 18.9129 36.517 20.2934 35.4802 21.4166C34.3468 22.6412 32.9119 23.2534 31.1717 23.2534C29.4355 23.2534 28.1253 22.6412 27.2371 21.4166C26.594 20.5313 26.2605 19.4783 26.2283 18.2693Z" fill="white"/><path fill-rule="evenodd" clip-rule="evenodd" d="M52.7941 11.2922C50.9815 11.2922 49.4824 11.9045 48.3008 13.1291C47.2196 14.2483 46.5927 15.629 46.4199 17.2708C46.247 18.9127 46.5847 20.2932 47.4368 21.4164C48.361 22.6411 49.7315 23.2534 51.5442 23.2534C53.3608 23.2534 54.8599 22.6411 56.0415 21.4164C57.1225 20.2932 57.7495 18.9127 57.9224 17.2708C58.0952 15.629 57.7536 14.2483 56.9055 13.1291C55.9811 11.9045 54.6106 11.2922 52.7941 11.2922ZM53.2522 6.9126C56.7649 6.9126 59.4577 7.90319 61.3305 9.88435C63.119 11.7875 63.8585 14.2483 63.541 17.2708C63.2275 20.2932 61.9736 22.758 59.7831 24.6612C57.5003 26.6384 54.5987 27.6291 51.086 27.6291C47.5734 27.6291 44.8846 26.6384 43.0118 24.6612C41.2232 22.758 40.4838 20.2932 40.8013 17.2708C41.1148 14.2483 42.3928 11.768 44.6314 9.82585C46.866 7.88369 49.7436 6.9126 53.2522 6.9126Z" fill="#FF4122"/><path fill-rule="evenodd" clip-rule="evenodd" d="M60.5348 27.161H66.2178L67.2748 17.5829C67.4958 15.5783 67.8897 13.5737 69.4691 12.5598C70.49 11.9084 71.5952 11.0777 73.3797 10.8242L73.7575 7.3728C71.3822 7.55611 68.8462 8.16839 68.2273 8.97568L68.4041 7.38061H62.7212L60.5348 27.161Z" fill="#F3D91B"/><path fill-rule="evenodd" clip-rule="evenodd" d="M102.98 9.43975L102.602 12.782C102.554 13.2383 102.594 13.5932 102.731 13.8467H101.055C100.966 13.6945 100.938 13.5035 100.962 13.2695C100.283 13.753 99.5437 13.9949 98.7359 13.9949C98.0928 13.9949 97.5824 13.8116 97.1966 13.4489C96.8148 13.0862 96.654 12.6065 96.7223 12.0059C96.8429 10.9373 97.5865 10.2782 98.9489 10.0286L99.6241 9.90385C100.078 9.82195 100.665 9.69715 101.384 9.52946L101.405 9.34226C101.465 8.80797 101.079 8.54278 100.247 8.54278C99.7889 8.54278 99.4593 8.61297 99.2664 8.75337C99.0735 8.89377 98.957 9.13947 98.9167 9.49046L97.3373 9.42806C97.4176 8.73777 97.7632 8.20738 98.3741 7.84078C98.9127 7.52489 99.5799 7.36499 100.38 7.36499C101.236 7.36499 101.875 7.48589 102.289 7.72769C102.843 8.05138 103.072 8.62467 102.98 9.43975ZM101.151 11.5808L101.256 10.6799C101.071 10.7618 100.814 10.8398 100.476 10.9061L99.5838 11.0816C99.2101 11.1557 98.9449 11.2415 98.7881 11.3429C98.555 11.4755 98.4224 11.6822 98.3943 11.9552C98.3661 12.1892 98.4424 12.3803 98.6233 12.5246C98.8002 12.6728 99.0374 12.743 99.3307 12.743C99.7567 12.743 100.138 12.6533 100.48 12.47C100.886 12.2516 101.111 11.9552 101.151 11.5808Z" fill="white"/><path fill-rule="evenodd" clip-rule="evenodd" d="M96.0752 7.51709L95.3639 13.8467H93.7763L93.8488 13.2188C93.3705 13.7375 92.7113 13.9949 91.8633 13.9949C91.1841 13.9949 90.6535 13.8467 90.2797 13.5464C89.8016 13.1525 89.6086 12.5402 89.7011 11.7056L90.1753 7.51709H91.7588L91.3367 11.2688C91.2444 12.1034 91.586 12.5207 92.3657 12.5207C92.9123 12.5207 93.3423 12.3491 93.6598 12.0059C93.909 11.7212 94.0577 11.3585 94.1059 10.9178L94.4917 7.51709H96.0752Z" fill="white"/><path fill-rule="evenodd" clip-rule="evenodd" d="M83.9135 10.8359L84.2953 7.38062H87.6954L87.3136 10.8359H83.9135Z" fill="#25BB1E"/><path fill-rule="evenodd" clip-rule="evenodd" d="M77.5875 7.3807C78.2467 2.77488 80.6662 1.1486 84.0462 0.345215L81.7834 20.8277C81.6871 21.6895 81.7794 22.2862 82.0487 22.6255C82.3782 23.0429 83.0535 23.2534 84.0783 23.2534L86.6184 23.0194L86.1844 26.9271C84.3517 27.2391 82.8285 27.3951 81.6147 27.3951C77.4549 27.3951 75.5499 25.8079 75.8996 22.6255L77.2057 10.8204H73.2792L73.661 7.3807H77.5875Z" fill="#25BB1E"/></g><defs><clippath id="clip0_88_252"><rect width="{103}" height="33.1494" fill="white" transform="translate(0 0.345215)"/></clippath></defs></svg>