<svg width="{80}" height="{30}" viewBox="0 0 80 30" fill="none" xmlns="http://www.w3.org/2000/svg" className="w-20 h-[28.89px] relative" preserveAspectRatio="none"><g clip-path="url(#clip0_88_266)"><path fill-rule="evenodd" clip-rule="evenodd" d="M55.4289 4.09462C54.4296 4.09462 53.6148 3.28203 53.6148 2.28425C53.6148 1.28647 54.4296 0.473877 55.4289 0.473877C56.4282 0.473877 57.2422 1.28647 57.2422 2.28425C57.2422 3.28203 56.4282 4.09462 55.4289 4.09462ZM36.4652 24.2117C36.3667 24.3287 36.2126 24.4028 36.0459 24.4028C35.8793 24.4028 35.7311 24.3287 35.6259 24.2117L33.183 20.8309V15.388C34.0163 15.8865 34.997 16.1694 36.0333 16.1694C37.5756 16.1694 38.9696 15.548 39.9815 14.5383C40.9933 13.528 41.6163 12.1368 41.6163 10.5968C41.6163 9.05758 40.9933 7.66573 39.9815 6.6561C38.9696 5.64647 37.5756 5.02425 36.0333 5.02425C34.4911 5.02425 33.097 5.64647 32.0852 6.6561C31.0733 7.66573 30.4504 9.05758 30.4504 10.5968V17.0628L28.797 14.7717C28.0874 13.5405 27.6807 12.1183 27.6807 10.5968C27.6807 5.99091 31.4193 2.25314 36.0393 2.25314C40.6541 2.25314 44.3985 5.98499 44.3985 10.5968C44.3985 12.1183 43.9911 13.5465 43.2822 14.7717L36.4652 24.2117ZM23.8126 14.3102H23.7689C23.0844 15.3939 21.8319 15.8309 20.5615 15.8309C18.6674 15.8309 16.9585 14.7472 16.9585 12.7094C16.9585 9.21166 21.2089 9.15017 23.8126 9.15017C23.8126 8.04795 22.8993 7.3398 21.8133 7.3398C20.7956 7.3398 19.9385 7.79536 19.2719 8.54647L17.6067 6.84128C18.7541 5.75758 20.4193 5.21536 22.0607 5.22128C25.7067 5.22128 26.6874 7.07462 26.6874 10.4435V15.5783H23.8126V14.3102ZM23.8185 11.145H23.0474C22.0852 11.145 19.963 11.225 19.963 12.5983C19.963 13.3494 20.7585 13.7005 21.4437 13.7005C22.6711 13.7005 23.8185 13.0598 23.8185 11.8102V11.145ZM12.7948 9.68573C12.7948 8.75017 12.443 7.96128 11.4193 7.96128C9.98148 7.96128 9.52519 8.97758 9.52519 10.228V15.5724H6.39704V10.228C6.39704 9.48277 6.44074 7.96128 5.00296 7.96128C3.38074 7.96128 3.12741 9.23017 3.12741 10.542V15.5724H0V5.46795H2.99778V6.83462H3.04148C3.46074 6.04647 4.47852 5.21536 6.00222 5.21536C7.41556 5.21536 8.58741 5.80054 9.13037 7.02573C9.85852 5.7324 10.8393 5.21536 12.3378 5.21536C15.0896 5.21536 15.9222 7.14869 15.9222 9.60573V15.5724H12.7948V9.68573Z" fill="white"/><path fill-rule="evenodd" clip-rule="evenodd" d="M72.7511 11.4902C73.0044 12.6784 73.8985 13.448 75.1081 13.448C76.1259 13.448 76.817 12.931 77.3348 12.2228L79.5185 13.8176C78.5192 15.0858 76.8785 15.8125 75.2496 15.8125C72.1222 15.8125 69.6237 13.7376 69.6237 10.511C69.6237 7.29023 72.1222 5.20949 75.2496 5.20949C78.1681 5.20949 80 7.28431 80 10.511V11.4902H72.7511ZM74.96 7.46282C73.5844 7.46282 72.8318 8.39912 72.7511 9.37764H76.8785C76.897 8.33764 76.0829 7.46282 74.96 7.46282ZM62.3688 15.5725L58.18 5.46801H61.5548L64.1148 12.3273H64.1577L66.5392 5.46134H69.6851L65.6814 15.5725H62.3688ZM53.8614 5.46801H56.9896V15.5725H53.8614V5.46801ZM36.0392 29.3658C26.4281 29.3658 18.6303 27.0384 18.6303 24.1747C18.6303 21.6747 24.5896 19.5813 32.5111 19.0947L32.714 19.0821V20.0858C26.2985 20.4125 21.5177 21.6747 21.5177 23.1836C21.5177 24.9384 28.02 26.3665 36.0459 26.3665C44.0718 26.3665 50.5733 24.9384 50.5674 23.1836C50.5674 21.7243 46.0644 20.4925 39.9318 20.1169L40.617 19.1688C48.0074 19.7658 53.4481 21.7791 53.4481 24.1747C53.4481 27.0443 45.657 29.3658 36.0392 29.3658ZM46.8044 12.7584V7.95542H44.8059V5.46134H46.8044V2.46875H49.9318V5.46801H52.6837V7.96134H49.9318V11.3302C49.9318 12.4139 50.0555 13.2021 51.4125 13.2021C51.7459 13.2021 52.4118 13.165 52.6837 12.9125V15.505C51.9925 15.7576 51.2214 15.8191 50.4933 15.8191C48.4081 15.8191 46.8044 14.9628 46.8044 12.7584ZM36.0459 13.4539C35.2563 13.4539 34.5407 13.1339 34.0222 12.6169C33.5037 12.0999 33.1829 11.385 33.1829 10.5969C33.1829 9.80875 33.5037 9.09468 34.0222 8.57764C34.5407 8.05986 35.2563 7.73986 36.0459 7.73986C36.8355 7.73986 37.5511 8.05986 38.0688 8.57764C38.5874 9.09468 38.9081 9.80875 38.9081 10.5969C38.9081 11.385 38.5874 12.0999 38.0688 12.6169C37.5511 13.1339 36.8355 13.4539 36.0459 13.4539Z" fill="white"/></g><defs><clippath id="clip0_88_266"><rect width="{80}" height="28.8889" fill="white" transform="translate(0 0.475586)"/></clippath></defs></svg>